<?xml version="1.0" encoding="UTF-8" standalone="no"?>
<svg
   xmlns:dc="http://purl.org/dc/elements/1.1/"
   xmlns:cc="http://creativecommons.org/ns#"
   xmlns:rdf="http://www.w3.org/1999/02/22-rdf-syntax-ns#"
   xmlns:svg="http://www.w3.org/2000/svg"
   xmlns="http://www.w3.org/2000/svg"
   xmlns:sodipodi="http://sodipodi.sourceforge.net/DTD/sodipodi-0.dtd"
   xmlns:inkscape="http://www.inkscape.org/namespaces/inkscape"
   id="Layer_1"
   data-name="Layer 1"
   viewBox="0 0 128 128"
   version="1.1"
   sodipodi:docname="admin.svg"
   inkscape:version="1.0.2-2 (e86c870879, 2021-01-15)">
  <metadata
     id="metadata17">
    <rdf:RDF>
      <cc:Work
         rdf:about="">
        <dc:format>image/svg+xml</dc:format>
        <dc:type
           rdf:resource="http://purl.org/dc/dcmitype/StillImage" />
      </cc:Work>
    </rdf:RDF>
  </metadata>
  <sodipodi:namedview
     pagecolor="#ffffff"
     bordercolor="#666666"
     borderopacity="1"
     objecttolerance="10"
     gridtolerance="10"
     guidetolerance="10"
     inkscape:pageopacity="0"
     inkscape:pageshadow="2"
     inkscape:window-width="1920"
     inkscape:window-height="1017"
     id="namedview15"
     showgrid="false"
     inkscape:zoom="5.6568543"
     inkscape:cx="35.609429"
     inkscape:cy="48.349456"
     inkscape:window-x="-8"
     inkscape:window-y="-8"
     inkscape:window-maximized="1"
     inkscape:current-layer="Layer_1" />
  <defs
     id="defs4">
    <style
       id="style2">.cls-1{fill:#2e79bd;}.cls-2{fill:#2d3e50;}</style>
  </defs>
  <title
     id="title6">x</title>
  <path
     class="cls-1"
     d="M65.76936,84.91726A14.569,14.569,0,0,0,81.8329,91.57069a14.3916,14.3916,0,0,0,3.87116-1.60659,14.58906,14.58906,0,0,0,5.04923-5.04937A14.38535,14.38535,0,0,0,92.36,81.04356a14.54749,14.54749,0,0,0-6.6559-16.06347A14.38933,14.38933,0,0,0,81.8329,63.3735,14.54085,14.54085,0,0,0,65.76936,84.91726Z"
     id="path8" />
  <path
     class="cls-2"
     d="M119.57964,70.98182H116.723a38.78508,38.78508,0,0,0-6.67352-16.11549l2.02186-2.022A6.4929,6.4929,0,0,0,102.889,43.662l-2.02186,2.022a38.72209,38.72209,0,0,0-16.11077-6.6688V36.15382a6.493,6.493,0,0,0-11.32969-4.33148A9.56557,9.56557,0,0,1,74.651,36.52948a9.706,9.706,0,0,1-7.63335,9.46982,32.63808,32.63808,0,0,1-2.46258,5.95,9.72313,9.72313,0,0,1,1.07586,2.291,26.22305,26.22305,0,0,1,6.14017-2.40689,26.6729,26.6729,0,0,1,12.98527,0A26.16727,26.16727,0,0,1,91.796,54.755,26.49008,26.49008,0,0,1,103.90014,83.967a26.167,26.167,0,0,1-2.92177,7.0398,26.53283,26.53283,0,0,1-9.18235,9.18242,26.16728,26.16728,0,0,1-7.03966,2.92163A26.44855,26.44855,0,0,1,54.14374,66.61791a9.61961,9.61961,0,0,1-2.98662-1.2707,33.26185,33.26185,0,0,1-5.94533,2.46251A9.70663,9.70663,0,0,1,35.742,75.43856a9.60507,9.60507,0,0,1-4.48459-1.10377A6.49649,6.49649,0,0,0,36.943,83.967h2.86143a38.667,38.667,0,0,0,6.67338,16.11091l-2.022,2.02194a6.49133,6.49133,0,1,0,9.17784,9.18242l2.022-2.022a38.78244,38.78244,0,0,0,16.11542,6.67345v2.85671a6.49264,6.49264,0,0,0,12.98527,0V115.929a38.72209,38.72209,0,0,0,16.11077-6.6688l2.02186,2.022a6.49293,6.49293,0,0,0,9.18235-9.18242l-2.02186-2.02194A38.721,38.721,0,0,0,116.71821,83.967h2.86143a6.49257,6.49257,0,1,0,0-12.98513Z"
     id="path10" />
  <path
     class="cls-1"
     d="M31.14826,65.74592a4.59131,4.59131,0,0,0,9.18263,0V63.72251a27.38307,27.38307,0,0,0,11.393-4.71595l1.42987,1.42987A4.59156,4.59156,0,0,0,59.64723,53.943l-1.43-1.42987a27.3823,27.3823,0,0,0,4.71595-11.393h2.02356a4.59135,4.59135,0,0,0,0-9.1827H62.93641a27.42543,27.42543,0,0,0-4.71919-11.39623l1.43-1.42987a4.59156,4.59156,0,0,0-6.49348-6.49341l-1.42987,1.42987a27.38214,27.38214,0,0,0-11.393-4.71595V7.30838a4.59131,4.59131,0,1,0-9.18263,0V9.32855a27.42612,27.42612,0,0,0-11.39637,4.71926L18.322,12.61794a4.59036,4.59036,0,1,0-6.4901,6.49341l1.42987,1.42987A27.38583,27.38583,0,0,0,8.53935,31.93746H6.519a4.59135,4.59135,0,0,0,0,9.1827H8.54246a27.34486,27.34486,0,0,0,4.71933,11.393L11.83192,53.943a4.59037,4.59037,0,1,0,6.4901,6.49341l1.42987-1.42987a27.426,27.426,0,0,0,11.39637,4.71919ZM28.13358,49.29037A14.86079,14.86079,0,0,1,39.38685,22.12244,14.70056,14.70056,0,0,1,43.342,23.76393a14.88285,14.88285,0,0,1,6.80055,16.41227,14.69874,14.69874,0,0,1-1.64149,3.95526A14.90572,14.90572,0,0,1,43.342,49.29037a14.696,14.696,0,0,1-3.95519,1.64149,14.84261,14.84261,0,0,1-11.25327-1.64149Z"
     id="path12" />
  <path
     style="fill:#ffde00;fill-opacity:1;stroke-width:0.150588"
     d="M 34.912941,70.169492 C 33.551292,69.896596 32.29791,68.916631 31.663831,67.629155 31.393676,67.080617 31.306982,66.591764 31.247224,65.28 c -0.07429,-1.630782 -0.0813,-1.657189 -0.45193,-1.702834 -0.685101,-0.08437 -3.671716,-0.910361 -4.743529,-1.31189 C 24.5541,61.704212 22.45565,60.643191 20.98847,59.705168 l -1.259291,-0.805114 -1.07937,1.046606 c -1.355215,1.31408 -2.173613,1.701962 -3.590985,1.701962 -1.809828,0 -3.156206,-0.84527 -3.983537,-2.500906 -0.36239,-0.725208 -0.458816,-1.113194 -0.458816,-1.846119 0,-1.474391 0.340969,-2.224224 1.620342,-3.563328 l 1.122825,-1.175248 -0.706123,-1.095627 C 11.020093,48.932956 9.4747512,45.214187 8.8745242,42.373484 L 8.6163616,41.081363 7.0691563,41.072709 C 5.8543816,41.065915 5.348539,40.913444 4.7186226,40.621758 2.5759987,39.629606 1.5255453,37.232188 2.2726817,35.039464 2.564228,34.183822 3.6591565,32.929946 4.5006961,32.488014 5.0042365,32.223583 5.4449809,32.151817 6.8585608,32.104091 l 1.7385607,-0.0587 0.2657123,-1.302696 c 0.5871354,-2.878525 2.2039272,-6.776034 3.7745932,-9.0992 0.379297,-0.561018 0.689632,-1.071914 0.689632,-1.135326 0,-0.06341 -0.447005,-0.55167 -0.993344,-1.085017 -1.30714,-1.276058 -1.602019,-1.869236 -1.682991,-3.385507 -0.06062,-1.135259 -0.03513,-1.260863 0.442328,-2.178881 0.854507,-1.642989 2.355689,-2.519711 4.218344,-2.463601 1.208943,0.03642 2.091121,0.484037 3.339385,1.69441 l 1.080341,1.047548 1.052086,-0.681836 c 2.526365,-1.637286 5.906677,-3.057884 8.882674,-3.7330005 l 1.505883,-0.3416154 0.08199,-1.6409237 c 0.09465,-1.8942732 0.288474,-2.4438109 1.217405,-3.4515816 0.877426,-0.9518948 1.628735,-1.3087135 2.935291,-1.3940575 1.972666,-0.1288541 3.525714,0.7563982 4.37673,2.4947762 0.363482,0.74249 0.428805,1.0799141 0.476214,2.4599233 l 0.05495,1.5993959 1.037962,0.171416 c 2.513336,0.4150683 6.733471,2.1430133 9.230124,3.7792973 l 1.189486,0.779578 1.069338,-1.059286 c 1.320758,-1.308345 2.188783,-1.730463 3.554043,-1.728322 3.259553,0.0051 5.510346,3.546998 4.060344,6.389426 -0.18707,0.366711 -0.770587,1.112642 -1.296706,1.657625 -0.526118,0.544985 -0.956579,1.04645 -0.956579,1.11437 0,0.06792 0.329931,0.638494 0.733181,1.267944 1.786921,2.789284 3.114924,6.084292 3.779015,9.376399 l 0.172093,0.853121 1.686092,0.05041 c 1.43432,0.04288 1.794692,0.105883 2.413396,0.421923 2.155522,1.101062 3.065764,3.765314 2.016444,5.902072 -0.865147,1.761725 -2.149099,2.506243 -4.557294,2.642618 -1.446371,0.08191 -1.547567,-0.15439 -1.610293,0.134782 -0.865999,3.992372 -2.113581,7.311198 -3.973276,10.191356 -0.362647,0.561641 -0.659358,1.062005 -0.659358,1.111919 0,0.04991 0.466445,0.581799 1.036547,1.181967 1.30157,1.370215 1.740329,2.389408 1.631822,3.790567 -0.242384,3.129964 -3.500649,5.10012 -6.282487,3.798793 -0.465655,-0.217831 -1.279656,-0.821456 -1.859409,-1.378848 l -1.031173,-0.991407 -1.270847,0.828382 c -2.420697,1.577889 -5.894212,3.015133 -8.789159,3.636709 l -1.28,0.274831 -0.08155,1.579626 c -0.06775,1.312381 -0.151313,1.722215 -0.493896,2.422431 -0.910752,1.861508 -2.934253,2.909396 -4.869259,2.521591 z M 37.425126,51.344395 C 46.4979,50.22967 52.416208,41.630795 50.170348,32.826507 48.774328,27.353785 44.58434,23.290451 38.927059,21.923075 38.72,21.873029 37.90283,21.767873 37.111126,21.689394 31.952577,21.17805 26.650079,23.582696 23.623608,27.805889 c -0.871004,1.215415 -1.939655,3.490634 -2.333903,4.969011 -0.478003,1.792446 -0.551463,4.81744 -0.162635,6.69708 1.577684,7.626704 8.68937,12.807254 16.298056,11.872415 z"
     id="path19"
     sodipodi:nodetypes="sssssscssssscsscssssscssssccsscsscssssscsscscssssscssssssssssscsscssssssssssss" />
  <path
     style="fill:#ffde00;fill-opacity:1;stroke-width:0.150588"
     d="M 76.93203,91.854131 C 70.397621,91.246794 65.038698,86.235544 63.993237,79.754773 c -0.234766,-1.455303 -0.10797,-4.498916 0.24229,-5.815949 1.70734,-6.419862 7.395089,-10.868411 13.919767,-10.887042 4.097101,-0.0117 7.633142,1.483681 10.482372,4.432959 2.678718,2.772779 4.018006,6.064408 4.03525,9.917612 0.01679,3.751742 -1.25945,7.079439 -3.736569,9.742818 -3.221761,3.464014 -7.469834,5.130415 -12.004317,4.70896 z"
     id="path844" />
  <path
     style="fill:#03273a;fill-opacity:1;stroke-width:0.150588"
     d="m 76.197647,124.83913 c -1.648834,-0.60867 -2.870785,-1.69431 -3.651703,-3.24433 -0.532097,-1.05615 -0.715356,-2.08921 -0.715356,-4.03261 v -1.68888 l -1.694117,-0.34356 c -4.035062,-0.81831 -9.509979,-3.08171 -12.976074,-5.36447 l -1.493723,-0.98376 -1.371312,1.32662 c -1.588432,1.53666 -2.349316,2.02401 -3.701427,2.37079 -3.586077,0.91973 -7.224382,-1.50887 -7.865229,-5.25011 -0.126163,-0.73653 -0.12569,-1.22585 0.0018,-1.91165 0.296272,-1.59312 0.811357,-2.47545 2.373105,-4.06504 0.785458,-0.79947 1.428106,-1.49802 1.428106,-1.55235 0,-0.0543 -0.433316,-0.761832 -0.962925,-1.572224 -2.509815,-3.840446 -4.30483,-8.144908 -5.301964,-12.714162 l -0.415559,-1.904251 -2.193894,-0.06463 c -2.475449,-0.07293 -3.200493,-0.272377 -4.525263,-1.244847 -2.053655,-1.507522 -3.070002,-4.524856 -2.337437,-6.939392 0.368354,-1.214095 0.34142,-1.201708 1.599419,-0.735666 1.460642,0.541112 4.022176,0.678896 5.629387,0.302803 3.231125,-0.756094 6.024365,-3.362846 7.007199,-6.539371 l 0.252767,-0.816947 1.565312,-0.553907 c 0.860921,-0.304649 2.17677,-0.83951 2.924109,-1.188581 l 1.358797,-0.634675 1.153686,0.533035 c 0.634526,0.29317 1.267673,0.533036 1.406993,0.533036 0.310763,0 0.288396,0.104147 -0.517444,2.409412 -0.969716,2.774067 -1.23571,4.312055 -1.328524,7.681573 -0.06408,2.326233 -0.02779,3.282655 0.174267,4.592942 0.655732,4.252294 1.954531,7.607383 4.31877,11.156341 1.559464,2.340911 4.706499,5.475625 7.058186,7.030551 12.493469,8.26063 28.90381,4.94352 37.087551,-7.496701 5.05728,-7.687635 5.66189,-17.731831 1.57255,-26.1241 C 96.211345,53.811854 82.266424,48.059693 69.607642,52.424626 c -0.947764,0.326803 -2.199064,0.833825 -2.780667,1.126714 -0.581602,0.292892 -1.102752,0.4766 -1.158111,0.408242 -0.05536,-0.06836 -0.293563,-0.541571 -0.529342,-1.051583 L 64.710834,51.980705 65.472759,50.2669 c 0.419058,-0.942594 0.952297,-2.265817 1.184977,-2.940496 l 0.423052,-1.226689 0.981959,-0.320827 c 3.875122,-1.266083 6.629018,-5.113485 6.629018,-9.261241 0,-1.340338 -0.387899,-3.130458 -0.892784,-4.120112 l -0.308984,-0.605661 0.649052,-0.531849 c 3.316436,-2.71757 8.088675,-1.612502 9.943668,2.302572 0.453692,0.957546 0.474618,1.087668 0.523639,3.256227 l 0.05106,2.258823 1.706426,0.341144 c 4.435011,0.886636 9.241504,2.899455 13.382313,5.60412 l 1.186155,0.774765 1.46188,-1.436274 c 1.09566,-1.076464 1.71169,-1.553168 2.45903,-1.902894 1.9509,-0.912934 4.25473,-0.741303 6.1054,0.454844 1.05775,0.683658 1.69196,1.423108 2.32848,2.714883 0.45414,0.921645 0.48231,1.075587 0.48231,2.635294 0,1.571637 -0.0257,1.709053 -0.502,2.6832 -0.35623,0.728588 -0.9069,1.447728 -1.8964,2.47655 l -1.39441,1.449821 0.93295,1.438744 c 2.59012,3.99437 4.52508,8.709715 5.47217,13.335215 l 0.2775,1.355294 2.24451,0.0795 c 2.11408,0.07488 2.30246,0.10672 3.24191,0.547872 2.6686,1.253141 4.22409,4.041443 3.76637,6.751448 -0.40813,2.416412 -1.93176,4.262675 -4.24165,5.139857 -0.46249,0.175631 -1.3518,0.283032 -2.8458,0.343685 l -2.17309,0.08822 -0.35774,1.731765 c -0.45662,2.210462 -1.58727,5.615699 -2.63157,7.925623 -0.74902,1.656799 -2.4302,4.650467 -3.32932,5.928495 l -0.37079,0.527052 1.38697,1.43195 c 1.86205,1.92244 2.38464,2.95541 2.46754,4.87744 0.0481,1.11527 -1.4e-4,1.53894 -0.25897,2.27414 -0.44412,1.26151 -1.29302,2.42914 -2.31075,3.17834 -1.23491,0.90909 -2.14861,1.18895 -3.87743,1.18762 -2.03157,-0.002 -2.98544,-0.46656 -4.98293,-2.42906 l -1.4696,-1.44385 -1.253732,0.82547 c -2.839468,1.86953 -6.036563,3.41116 -9.27582,4.47278 -1.641248,0.53789 -4.967248,1.36164 -5.497827,1.36164 -0.196411,0 -0.239708,0.3513 -0.283045,2.29647 -0.04943,2.21859 -0.06743,2.33081 -0.530782,3.30893 -0.664879,1.40352 -1.650348,2.40902 -3.028678,3.09023 -1.0259,0.50702 -1.255008,0.56059 -2.573632,0.60173 -1.162075,0.0363 -1.610789,-0.0151 -2.275717,-0.26058 z"
     id="path846" />
  <path
     style="fill:#03273a;fill-opacity:1;stroke-width:0.0133102"
     d="m 30.96377,63.688245 c -0.01098,-0.0025 -0.181685,-0.03501 -0.379342,-0.07223 -0.920011,-0.173216 -1.873255,-0.405332 -2.786885,-0.67861 -2.780188,-0.831589 -5.474437,-2.137041 -7.854023,-3.805533 l -0.192366,-0.13488 -0.819213,0.816465 c -0.862697,0.859804 -0.987671,0.972648 -1.325933,1.197249 -1.085922,0.721037 -2.407814,0.944958 -3.672697,0.622133 -1.4105,-0.359989 -2.569543,-1.3789 -3.116487,-2.739695 l -0.07132,-0.177437 6.87e-4,-0.161974 6.88e-4,-0.161974 0.05003,0.139757 c 0.02752,0.07687 0.08189,0.211633 0.120822,0.299481 0.622302,1.404103 1.517068,2.257696 2.762073,2.634977 0.695525,0.210769 1.680145,0.24854 2.417973,0.09276 0.772267,-0.163055 1.422841,-0.548877 2.301116,-1.364675 0.09151,-0.085 0.423931,-0.404469 0.738719,-0.709935 0.314787,-0.305466 0.579058,-0.558262 0.587268,-0.561768 0.0082,-0.0035 0.313681,0.184568 0.678823,0.417944 1.398294,0.893702 2.010507,1.244455 3.266047,1.871205 1.09647,0.547344 1.969681,0.925142 2.741911,1.186299 1.270516,0.429671 3.624537,1.069302 4.337235,1.178508 0.192196,0.02945 0.24752,0.04703 0.28681,0.09112 0.02528,0.02837 0.02524,0.02845 -0.01331,0.02691 -0.02127,-8.49e-4 -0.04765,-0.0036 -0.05863,-0.0061 z"
     id="path850" />
  <path
     style="fill:#03273a;fill-opacity:1;stroke-width:0.0133102"
     d=""
     id="path852" />
  <path
     style="fill:#03273a;fill-opacity:1;stroke-width:0.0133102"
     d="m 35.356151,70.315415 c -0.639743,-0.06487 -1.156799,-0.213184 -1.690402,-0.484891 -0.705208,-0.359086 -1.271751,-0.858558 -1.721655,-1.517834 -0.412012,-0.603749 -0.67011,-1.301221 -0.762754,-2.061227 -0.01827,-0.149875 -0.0225,-0.351943 -0.02547,-1.217887 -0.0043,-1.239371 0.01219,-1.233462 0.07413,0.02662 0.05308,1.079753 0.08485,1.423523 0.168531,1.823504 0.212765,1.016957 1.040652,2.097731 2.09333,2.73276 1.186317,0.715648 2.541183,0.833412 3.820316,0.33206 0.90011,-0.352796 1.69429,-1.010632 2.218793,-1.837873 l 0.08446,-0.133211 v 0.109645 0.109645 l -0.09233,0.135446 c -0.160053,0.234801 -0.317308,0.420891 -0.558764,0.661223 -0.236161,0.235061 -0.429193,0.395225 -0.673277,0.558636 -0.641719,0.429621 -1.344071,0.680808 -2.121067,0.758572 -0.125983,0.01261 -0.703282,0.01602 -0.813842,0.0048 z"
     id="path854" />
  <path
     style="fill:#03273a;fill-opacity:1;stroke-width:0.00941176"
     d="m 12.508127,53.272551 0.76014,-0.760185 -0.119444,-0.169227 C 11.740763,50.348216 10.567986,48.076131 9.7434244,45.745675 9.2362072,44.312129 8.8627756,42.892914 8.5875295,41.352734 l -0.013035,-0.07294 h 0.030796 c 0.021189,0 0.032324,0.0051 0.035695,0.01647 0.00269,0.0091 0.062516,0.289648 0.132937,0.62353 0.1877153,0.890001 0.2817364,1.278694 0.4576007,1.891765 0.4197899,1.463407 1.0305388,3.068226 1.7640598,4.635294 0.13062,0.279051 0.555868,1.126759 0.691679,1.378823 0.448492,0.832398 0.708065,1.260051 1.587786,2.615924 l 0.07598,0.117099 -0.02978,0.03429 c -0.01638,0.01886 -0.298717,0.315655 -0.627423,0.659545 -0.328706,0.343889 -0.629412,0.660114 -0.668235,0.702721 l -0.07059,0.07747 -0.103508,5e-6 -0.103508,5e-6 z"
     id="path858" />
  <path
     style="fill:#03273a;fill-opacity:1;stroke-width:0.00941176"
     d=""
     id="path860" />
  <path
     style="fill:#03273a;fill-opacity:1;stroke-width:0.00941176"
     d="m 8.5672988,41.235087 c -0.00347,-0.02459 -0.00857,-0.05241 -0.011324,-0.06184 -0.00424,-0.01447 -2.322e-4,-0.01666 0.025798,-0.01412 0.032509,0.0032 0.035393,0.0081 0.049836,0.08536 0.00658,0.03521 0.00652,0.03529 -0.0257,0.03529 -0.031372,0 -0.03248,-0.0013 -0.03861,-0.04471 z"
     id="path862" />
  <path
     style="fill:#03273a;fill-opacity:1;stroke-width:0.00941176"
     d="M 6.3173545,41.109627 C 4.861153,41.047738 3.5133918,40.286738 2.7016007,39.068028 2.2967948,38.460309 2.0472589,37.774144 1.9588631,37.025675 c -0.020358,-0.172379 -0.028232,-0.637872 -0.013986,-0.826891 0.0203,-0.269344 0.074432,-0.593987 0.1398962,-0.838991 l 0.026405,-0.09882 0.045489,-0.0029 c 0.040633,-0.0026 0.044783,-0.0011 0.038881,0.01412 -0.014282,0.03683 -0.071969,0.287529 -0.094877,0.412331 -0.052873,0.288045 -0.064694,0.43336 -0.064694,0.795294 0,0.284682 0.003,0.358487 0.020254,0.498823 0.1102882,0.89688 0.4466892,1.686373 1.0157685,2.383889 0.130408,0.15984 0.461626,0.491058 0.621466,0.621466 0.5578476,0.455129 1.2040859,0.779124 1.8427124,0.923853 0.4219226,0.09562 0.7567182,0.128398 1.9670589,0.19259 l 0.32,0.01697 -0.6682353,-2.78e-4 c -0.3675294,-1.54e-4 -0.7444706,-0.0035 -0.8376471,-0.0075 z"
     id="path864" />
  <path
     style="fill:#03273a;fill-opacity:1;stroke-width:0.00941176"
     d="m 2.1150016,35.250693 c 0,-0.0031 0.023879,-0.07824 0.053065,-0.167059 0.3468976,-1.055687 1.092901,-1.969548 2.064266,-2.528744 0.6043484,-0.347912 1.2704157,-0.550243 1.9814928,-0.601916 0.078182,-0.0057 0.5784318,-0.0096 1.2301618,-0.0096 l 1.098397,-3.9e-5 0.00522,-0.03059 c 0.1380347,-0.808662 0.3298507,-1.69598 0.5282108,-2.443441 0.2226875,-0.839131 0.4511076,-1.564573 0.777572,-2.4695 0.00888,-0.02463 0.012306,-0.02588 0.0706,-0.02588 0.054585,0 0.060543,0.0018 0.054665,0.01647 -0.03124,0.07798 -0.1733499,0.467866 -0.244183,0.669925 -0.2895601,0.826005 -0.5241437,1.601533 -0.7062301,2.334781 -0.094705,0.381368 -0.1530513,0.653789 -0.3688916,1.722353 -0.033982,0.168235 -0.065659,0.310026 -0.070393,0.315091 -0.0049,0.0052 -0.1553762,0.01414 -0.3495158,0.02067 -0.1874996,0.0063 -0.6034967,0.02017 -0.9244378,0.03082 -0.8732077,0.02896 -1.1592461,0.04252 -1.5058824,0.07137 -0.6625263,0.05514 -1.0278403,0.157371 -1.4429741,0.40379 -0.4759721,0.282532 -1.0615652,0.842825 -1.5152456,1.449781 -0.3100341,0.414779 -0.5034962,0.770827 -0.6178134,1.137027 l -0.034425,0.110274 h -0.04183 c -0.023007,0 -0.04183,-0.0025 -0.04183,-0.0056 z"
     id="path866" />
  <path
     style="fill:#03273a;fill-opacity:1;stroke-width:0.00941176"
     d="m 9.8954558,26.887262 c 0.8242392,-2.196584 1.9068312,-4.256853 3.2208922,-6.129645 l 0.151764,-0.216293 -0.171754,-0.171942 -0.171754,-0.171942 h 0.0764 0.0764 l 0.06025,0.06824 c 0.08224,0.09313 0.131916,0.154796 0.163276,0.202675 l 0.02641,0.04032 -0.04311,0.08683 c -0.08318,0.167557 -0.297693,0.513256 -0.599823,0.966643 -0.10176,0.152706 -0.226738,0.343271 -0.277727,0.423479 -0.832462,1.309487 -1.693239,3.073563 -2.383504,4.884756 l -0.037662,0.09882 -0.061443,0.0028 -0.061443,0.0028 z"
     id="path868" />
  <path
     style="fill:#03273a;fill-opacity:1;stroke-width:0.00941176"
     d="m 12.302201,19.57391 c -0.714129,-0.716744 -0.821609,-0.838036 -1.052929,-1.188235 -0.414461,-0.62746 -0.659902,-1.327601 -0.740709,-2.112941 -0.01578,-0.15334 -0.0157,-0.653828 1.27e-4,-0.814118 0.05465,-0.553479 0.19828,-1.080628 0.422478,-1.550588 l 0.05276,-0.110588 h 0.06803 0.06803 l -0.07566,0.143529 c -0.248817,0.472018 -0.352387,0.742418 -0.39925,1.042353 -0.03133,0.200516 -0.02167,0.814564 0.02117,1.345883 0.07271,0.901812 0.257146,1.437339 0.703386,2.042353 0.212717,0.288402 0.518637,0.622848 1.013603,1.108118 0.225474,0.221057 0.663873,0.67486 0.680468,0.704376 0.0062,0.01108 -0.0052,0.01339 -0.06636,0.01339 h -0.07389 z"
     id="path870" />
  <path
     style="fill:#03273a;fill-opacity:1;stroke-width:0.00941176"
     d="m 10.990296,13.792421 c 0,-0.01042 0.05198,-0.107645 0.123107,-0.230275 0.43877,-0.75643 1.098659,-1.381767 1.876893,-1.778615 1.178624,-0.601022 2.533203,-0.666331 3.774117,-0.181965 0.270556,0.105606 0.649696,0.306572 0.889412,0.471439 0.290694,0.199927 0.4357,0.325259 0.84,0.726034 l 0.345882,0.342867 v 0.06036 0.06036 l -0.195411,-0.186712 c -0.333271,-0.318434 -0.544755,-0.505542 -0.790909,-0.699745 -0.754328,-0.595128 -1.404857,-0.877788 -2.223091,-0.965953 -0.191246,-0.02061 -0.728008,-0.02371 -0.917647,-0.0053 -0.368444,0.03575 -0.617651,0.08114 -0.921118,0.167775 -1.066229,0.304384 -1.942103,0.994904 -2.550195,2.01052 -0.03948,0.06593 -0.08254,0.141109 -0.09568,0.167059 l -0.02391,0.04718 h -0.06572 c -0.03615,0 -0.06572,-0.0023 -0.06572,-0.005 z"
     id="path876" />
  <path
     style="fill:#03273a;fill-opacity:1;stroke-width:0.00941176"
     d="m 19.286766,13.698431 -0.442353,-0.428386 -0.0027,-0.06336 -0.0027,-0.06336 0.455717,0.455346 c 0.250644,0.25044 0.459383,0.453077 0.463864,0.450304 0.0045,-0.0028 0.09709,-0.06735 0.205794,-0.143509 1.986668,-1.391826 4.218069,-2.542793 6.508236,-3.356978 0.481909,-0.171325 1.40112,-0.468692 1.448806,-0.468692 0.0058,0 0.01002,0.02094 0.01002,0.05004 v 0.05004 l -0.148235,0.04545 c -0.22733,0.0697 -0.817956,0.266273 -1.075294,0.357883 -2.137393,0.760894 -4.168043,1.739541 -5.857965,2.823176 -0.09883,0.06337 -0.387212,0.249821 -0.640859,0.414335 -0.253647,0.164514 -0.465412,0.300688 -0.470588,0.302608 -0.0052,0.0019 -0.208471,-0.189283 -0.451765,-0.424896 z"
     id="path878" />
  <path
     style="fill:#03273a;fill-opacity:1;stroke-width:0.00941176"
     d="m 27.931472,10.123508 v -0.0504 l 0.30353,-0.085706 c 0.904632,-0.2554348 1.802419,-0.4598869 2.738823,-0.6237098 l 0.176471,-0.030873 1.36e-4,-1.0500416 c 1.35e-4,-1.0354357 0.0051,-1.2586858 0.0331,-1.4992887 0.09371,-0.8041813 0.406645,-1.5881678 0.888745,-2.2265311 0.246153,-0.3259391 0.545087,-0.6287098 0.87096,-0.8821382 0.193523,-0.1505016 0.511009,-0.3513022 0.726824,-0.4596951 0.06649,-0.033396 0.07035,-0.03414 0.174117,-0.033551 0.105155,5.964e-4 0.105819,7.395e-4 0.07318,0.015776 -0.537014,0.2473666 -0.85777,0.4781045 -1.313173,0.94464 -0.742438,0.760586 -1.051901,1.2965087 -1.203205,2.0836882 -0.09045,0.470572 -0.116677,0.7891066 -0.194904,2.3670589 -0.02117,0.4270588 -0.04132,0.7789698 -0.04478,0.7820246 -0.0035,0.00305 -0.376877,0.089345 -0.829818,0.1917558 -1.101629,0.2490807 -1.577687,0.3686263 -2.176517,0.546558 -0.112613,0.03346 -0.208966,0.06084 -0.214117,0.06084 -0.0052,0 -0.0094,-0.02268 -0.0094,-0.0504 z"
     id="path880" />
  <path
     style="fill:#03273a;fill-opacity:1;stroke-width:0.00941176"
     d="M 46.463237,11.25035 C 46.25875,11.159792 45.558997,10.876759 45.220884,10.747849 43.899552,10.244072 42.721427,9.8868117 41.686766,9.676145 41.536444,9.645538 40.368052,9.4492046 40.336231,9.4492046 c -0.01512,0 -0.01888,-0.00625 -0.01888,-0.031388 0,-0.056428 -0.05575,-1.6521908 -0.06582,-1.8839058 C 40.20265,6.4087245 40.120157,6.043006 39.751578,5.3174398 39.28732,4.4035251 38.633993,3.7340731 37.809119,3.3270397 37.437829,3.1438268 37.038325,3.016161 36.618316,2.9465059 c -0.277544,-0.046028 -0.422552,-0.0584 -0.74802,-0.063818 -0.683817,-0.011383 -1.324268,0.081144 -1.814532,0.2621494 -0.108783,0.040163 -0.11228,0.040786 -0.211569,0.037696 l -0.100958,-0.00314 0.06118,-0.028164 c 0.347174,-0.1598283 0.73977,-0.2853868 1.100898,-0.3520846 1.311401,-0.2422069 2.664269,0.098656 3.70148,0.9326101 0.912047,0.7333176 1.506366,1.7737128 1.671952,2.9268621 0.04127,0.2874169 0.0416,0.2982668 0.04538,1.5082353 0.002,0.6431765 0.005,1.1694118 0.0067,1.1694118 0.01439,0 0.635153,0.1141961 0.82415,0.1516123 1.635414,0.3237677 3.267652,0.8074597 4.818823,1.4279937 0.278435,0.111386 0.817934,0.337029 0.827451,0.346078 0.0022,0.0021 -0.06561,0.0036 -0.150588,0.0034 -0.118484,-2.83e-4 -0.162191,-0.0038 -0.187451,-0.01496 z"
     id="path882" />
  <path
     style="fill:#03273a;fill-opacity:1;stroke-width:0.00941176"
     d="M 51.126766,13.749357 C 50.779943,13.521576 50.392413,13.270399 50.26559,13.191184 49.333754,12.609158 48.14727,11.99267 46.875338,11.429635 46.739271,11.369404 46.600697,11.308931 46.567396,11.295252 l -0.06055,-0.02487 0.151061,-0.0026 0.151061,-0.0026 0.116545,0.05101 c 0.322717,0.141253 0.732482,0.334985 1.147133,0.542351 1.208471,0.604352 2.385449,1.305847 3.468235,2.067113 0.088,0.06187 0.165716,0.116009 0.172702,0.12031 0.0091,0.0056 0.237256,-0.216265 0.814117,-0.791919 0.793844,-0.792182 0.905802,-0.89734 1.14024,-1.070982 0.392367,-0.290618 0.820996,-0.512625 1.289412,-0.667847 0.249687,-0.08274 0.230588,-0.08057 0.230586,-0.02623 l -2e-6,0.04489 -0.101175,0.03119 c -0.520727,0.160537 -1.069095,0.488947 -1.635292,0.979353 -0.234099,0.202763 -0.434284,0.393835 -1.039109,0.991808 -0.349489,0.34553 -0.639838,0.628012 -0.645221,0.627739 -0.0054,-2.74e-4 -0.293552,-0.186864 -0.640376,-0.414645 z"
     id="path884" />
  <path
     style="fill:#03273a;fill-opacity:1;stroke-width:0.00941176"
     d="m 58.651472,19.994943 c 0,-0.0071 0.188584,-0.211826 0.437687,-0.47515 0.4454,-0.470829 0.746489,-0.825194 1.027586,-1.209412 0.239537,-0.327413 0.336014,-0.490153 0.455631,-0.768577 0.472623,-1.100086 0.44494,-2.33271 -0.07806,-3.475606 -0.331536,-0.724498 -0.881308,-1.388357 -1.534765,-1.853255 -0.606289,-0.431341 -1.278682,-0.69525 -2.016316,-0.791388 -0.205882,-0.02683 -0.417666,-0.03622 -0.687059,-0.03045 -0.398481,0.0085 -0.652081,0.0391 -0.957,0.115318 -0.05011,0.01253 -0.09588,0.02278 -0.101692,0.02278 -0.0067,0 -0.0095,-0.01605 -0.0077,-0.04415 l 0.0029,-0.04415 0.06588,-0.01693 c 0.106487,-0.02737 0.320055,-0.07051 0.451765,-0.09125 0.489916,-0.07715 1.071577,-0.06489 1.567059,0.03304 1.079597,0.213364 2.039072,0.799777 2.723634,1.664633 0.437573,0.552817 0.753588,1.236736 0.893687,1.934118 0.256534,1.276961 -0.04866,2.621421 -0.829809,3.655585 -0.161259,0.21349 -0.283518,0.345705 -0.786263,0.850297 l -0.527475,0.529412 h -0.04983 c -0.02741,0 -0.04983,-0.0022 -0.04983,-0.0049 z"
     id="path886" />
  <path
     style="fill:#03273a;fill-opacity:1;stroke-width:0.00941176"
     d="m 58.227943,20.512624 c 0,-0.02015 0.233242,-0.310202 0.373231,-0.464144 0.04529,-0.04981 0.04592,-0.05012 0.09515,-0.04706 l 0.04956,0.0031 -0.258972,0.258759 c -0.142434,0.142318 -0.258971,0.254532 -0.258971,0.249366 z"
     id="path890" />
  <path
     style="fill:#03273a;fill-opacity:1;stroke-width:0.00941176"
     d="m 61.706574,27.521385 c -0.0027,-0.0043 -0.03417,-0.09006 -0.07004,-0.190588 -0.196128,-0.549771 -0.474209,-1.247228 -0.723935,-1.81571 -0.568387,-1.29389 -1.192611,-2.465575 -1.957223,-3.673765 -0.276389,-0.436731 -0.451756,-0.725045 -0.593816,-0.976269 -0.08288,-0.146578 -0.155576,-0.29587 -0.150896,-0.30991 0.0019,-0.0058 0.03387,0.03309 0.07097,0.08645 0.03709,0.05336 0.104404,0.149963 0.149578,0.214668 0.112785,0.161551 0.431046,0.639644 0.551347,0.828236 1.025234,1.607223 1.865399,3.276447 2.534401,5.035294 0.100925,0.265338 0.287452,0.784194 0.287452,0.799594 0,0.01161 -0.09075,0.01346 -0.09784,0.002 z"
     id="path892" />
  <path
     style="fill:#03273a;fill-opacity:1;stroke-width:0.00941176"
     d="m 68.09129,33.31744 c -0.346491,-0.346059 -0.725588,-0.614875 -1.180994,-0.837437 -0.597581,-0.292045 -0.920789,-0.341542 -2.550588,-0.390605 -0.957987,-0.02884 -1.095822,-0.03303 -1.280255,-0.03889 l -0.188489,-0.006 -0.107013,-0.528241 c -0.152737,-0.75394 -0.207943,-1.003125 -0.335971,-1.516475 -0.178512,-0.715774 -0.379465,-1.401781 -0.621704,-2.122353 -0.06004,-0.178588 -0.111146,-0.33 -0.113576,-0.336471 -0.0032,-0.0085 0.0099,-0.01176 0.04754,-0.01176 h 0.05195 l 0.08958,0.270588 c 0.429134,1.296211 0.753061,2.571115 0.97985,3.85647 0.02375,0.134589 0.04523,0.254025 0.04775,0.265414 l 0.0046,0.02071 1.183467,0.0037 c 1.251431,0.0039 1.235402,0.0034 1.531703,0.04908 0.337262,0.05203 0.707345,0.15311 1.018409,0.27817 0.170385,0.0685 0.472957,0.219035 0.633356,0.315105 0.318132,0.190542 0.64394,0.442292 0.873388,0.674861 l 0.06868,0.06962 -0.0028,0.06521 -0.0028,0.06521 z"
     id="path894" />
  <path
     style="fill:#03273a;fill-opacity:1;stroke-width:0.00941176"
     d="m 63.766766,41.114633 c 0.01035,-0.0021 0.200942,-0.0146 0.42353,-0.02786 0.222588,-0.01326 0.480941,-0.03046 0.574117,-0.03823 1.227029,-0.10232 2.127676,-0.380496 2.828236,-0.873536 0.302332,-0.212776 0.62005,-0.522267 0.86459,-0.842204 0.313618,-0.410313 0.63151,-1.013394 0.782027,-1.483602 0.465932,-1.455551 0.112757,-3.113383 -0.912779,-4.284661 l -0.08443,-0.09642 V 33.4069 c 0,-0.03367 0.004,-0.06122 0.009,-0.06122 0.01322,0 0.177756,0.184379 0.289764,0.324706 0.545258,0.683112 0.872386,1.478818 0.977008,2.376471 0.02076,0.178127 0.02842,0.599218 0.01439,0.790935 -0.0951,1.299238 -0.709079,2.470553 -1.716287,3.274223 -0.624944,0.498655 -1.364391,0.824307 -2.149426,0.946606 -0.320811,0.04998 -0.388321,0.05322 -1.179696,0.05661 -0.406353,0.0017 -0.730353,0.0015 -0.72,-5.93e-4 z"
     id="path896" />
  <path
     style="fill:#03273a;fill-opacity:1;stroke-width:0.00941176"
     d="m 61.418531,46.308101 c 0,-0.0044 0.03539,-0.105159 0.07864,-0.224 0.475156,-1.3056 0.908875,-2.821339 1.249492,-4.366661 0.03081,-0.139765 0.06285,-0.275294 0.0712,-0.301177 0.01508,-0.04672 0.0668,-0.132301 0.075,-0.124104 0.0091,0.0091 -0.09922,0.584507 -0.190764,1.013516 -0.281503,1.319201 -0.659033,2.618461 -1.121272,3.858824 l -0.05436,0.145882 -0.05396,0.0028 c -0.02968,0.0016 -0.05396,-7.44e-4 -0.05396,-0.0051 z"
     id="path898" />
  <path
     style="fill:#03273a;fill-opacity:1;stroke-width:0.00941176"
     d="m 59.105301,51.018616 c 0.04709,-0.07311 0.212842,-0.346817 0.329142,-0.543529 0.568148,-0.960974 1.104057,-2.026143 1.54843,-3.077647 0.09388,-0.222134 0.332955,-0.820904 0.393648,-0.985882 l 0.03549,-0.09647 h 0.05503 c 0.03026,0 0.05503,0.0017 0.05503,0.0037 0,0.0072 -0.18739,0.483509 -0.261973,0.665926 -0.531296,1.299455 -1.217719,2.660722 -1.930891,3.829208 -0.05845,0.09576 -0.113083,0.185737 -0.12141,0.19994 -0.01351,0.02305 -0.02056,0.02583 -0.06563,0.02588 -0.05014,5.7e-5 -0.0504,-9.4e-5 -0.03685,-0.02112 z"
     id="path900" />
  <path
     style="fill:#03273a;fill-opacity:1;stroke-width:0.00941176"
     d="m 58.213542,52.489205 c 0.02032,-0.07312 0.27582,-0.50135 0.64297,-1.077647 l 0.233847,-0.367059 0.04989,-0.0029 0.04989,-0.0029 -0.02156,0.03582 c -0.139331,0.231513 -0.529606,0.824645 -0.776002,1.179354 -0.181002,0.260567 -0.188958,0.271023 -0.179029,0.235294 z"
     id="path902" />
  <path
     style="fill:#03273a;fill-opacity:1;stroke-width:0.00941176"
     d="m 60.025481,59.807513 c 0.5909,-0.820051 0.892556,-1.812659 0.862569,-2.838308 -0.02311,-0.790557 -0.237343,-1.435557 -0.714296,-2.150589 -0.24201,-0.362811 -0.513067,-0.691179 -0.986868,-1.195523 -0.512804,-0.545862 -0.964088,-1.056586 -0.947911,-1.072764 0.0088,-0.0088 1.570186,1.566491 1.660477,1.675346 0.621895,0.749766 0.968577,1.575281 1.069163,2.545883 0.0162,0.156317 0.01612,0.682557 -1.34e-4,0.837647 -0.07229,0.689973 -0.266491,1.298783 -0.598934,1.877647 -0.05188,0.09034 -0.197245,0.314075 -0.258355,0.397647 l -0.02925,0.04 h -0.07038 -0.07038 l 0.08429,-0.116986 z"
     id="path904" />
  <path
     style="fill:#03273a;fill-opacity:1;stroke-width:0.00941176"
     d="m 46.660884,61.790094 v -0.06407 l 0.148235,-0.06463 c 0.995934,-0.434228 2.06888,-0.980998 2.924706,-1.49042 0.354238,-0.210856 0.482835,-0.292578 1.337949,-0.850249 0.332108,-0.216587 0.609519,-0.395961 0.616471,-0.39861 0.0076,-0.0029 0.199935,0.175397 0.483227,0.447975 0.563677,0.542358 0.711111,0.680999 0.884706,0.831944 0.392233,0.341054 0.8659,0.69409 1.216104,0.906394 0.482188,0.292316 1.043016,0.478631 1.668602,0.554331 0.170936,0.02069 0.705238,0.02367 0.88,0.0049 0.922069,-0.09895 1.773203,-0.466559 2.48,-1.071111 0.196374,-0.167967 0.461284,-0.445051 0.618179,-0.646588 0.01958,-0.02515 0.02352,-0.02617 0.09061,-0.02353 l 0.07014,0.0028 -0.07065,0.08941 c -0.307355,0.388972 -0.67773,0.730774 -1.077485,0.99436 -0.326678,0.215401 -0.719602,0.40732 -1.075496,0.525313 -0.539408,0.178836 -1.133636,0.261885 -1.663358,0.23247 -0.404271,-0.02245 -0.696683,-0.07094 -1.062498,-0.176186 -0.63323,-0.182186 -1.201667,-0.488534 -1.716497,-0.925073 -0.05177,-0.04389 -0.452609,-0.437531 -0.890765,-0.874752 -0.533512,-0.532373 -0.80052,-0.792555 -0.808371,-0.787703 -0.0064,0.004 -0.07784,0.05395 -0.158646,0.11104 -0.772748,0.545914 -1.732382,1.142539 -2.597453,1.614894 -0.723248,0.394915 -1.577973,0.812669 -2.267118,1.108072 l -0.03059,0.01311 z"
     id="path908" />
  <path
     style="fill:#03273a;fill-opacity:1;stroke-width:0.00941176"
     d=""
     id="path910" />
  <path
     style="fill:#03273a;fill-opacity:1;stroke-width:0.00941176"
     d="m 40.363453,63.67833 0.0061,-0.0297 0.517443,-0.111114 c 0.284594,-0.06111 0.65509,-0.14128 0.823326,-0.178149 1.45839,-0.319603 3.073468,-0.843202 4.671975,-1.514627 0.148206,-0.06225 0.271717,-0.113183 0.274469,-0.113183 0.0028,0 0.0038,0.02822 0.0022,0.06271 l -0.0028,0.06271 -0.197647,0.0833 c -1.70171,0.717243 -3.500044,1.268464 -5.303529,1.625624 -0.303666,0.06014 -0.75449,0.142117 -0.781533,0.142117 -0.01306,0 -0.01495,-0.0056 -0.01002,-0.0297 z"
     id="path912" />
  <path
     style="fill:#03273a;fill-opacity:1;stroke-width:0.00941176"
     d="M 39.620884,68.070835 V 67.95929 l 0.04351,-0.07543 c 0.06277,-0.108824 0.190687,-0.37171 0.256355,-0.526841 0.146998,-0.347263 0.228893,-0.672387 0.282599,-1.121932 0.03528,-0.29528 0.05309,-0.548323 0.09937,-1.411765 l 0.02169,-0.404706 0.0012,0.724867 c 6.68e-4,0.409829 -0.003,0.790244 -0.0085,0.875294 -0.04159,0.643859 -0.198369,1.223078 -0.48525,1.792781 -0.07119,0.141374 -0.182281,0.33972 -0.202684,0.361882 -0.0047,0.0051 -0.0082,-0.03836 -0.0082,-0.102605 z"
     id="path914" />
  <path
     style="fill:#03273a;fill-opacity:1;stroke-width:0.00470588"
     d="m 35.927148,51.419532 v -0.03029 l 0.20353,-0.0057 c 1.151861,-0.0321 2.240714,-0.186106 3.353055,-0.47425 2.43568,-0.630945 4.697303,-1.895314 6.528917,-3.650015 0.06592,-0.06315 0.105435,-0.09769 0.111765,-0.09769 0.0089,0 0.0098,0.0028 0.0098,0.02881 v 0.0288 l -0.06235,0.05963 c -1.321371,1.263668 -2.861671,2.272656 -4.549324,2.980078 -1.20502,0.505115 -2.473715,0.853776 -3.788746,1.041219 -0.596146,0.08497 -1.061392,0.124764 -1.713695,0.146562 l -0.09294,0.0031 z"
     id="path916" />
  <path
     style="fill:#03273a;fill-opacity:1;stroke-width:0.0133102"
     d=""
     id="path918" />
  <path
     style="fill:#03273a;fill-opacity:1;stroke-width:0.00390625"
     d="m 35.250718,51.445809 c -1.714816,-0.04983 -3.376026,-0.393427 -4.974609,-1.028923 -1.021645,-0.406142 -2.033341,-0.946953 -2.927734,-1.565044 -0.04834,-0.03341 -0.09793,-0.0676 -0.110203,-0.07599 l -0.02231,-0.01526 -1.49e-4,-0.03027 c -8.2e-5,-0.01665 5.41e-4,-0.03027 0.0014,-0.03027 8.44e-4,0 0.03996,0.02663 0.08691,0.05919 1.45027,1.005334 3.111895,1.756494 4.837333,2.186782 0.855363,0.213309 1.707981,0.3478 2.587891,0.408211 0.275841,0.01894 0.644937,0.03326 0.858398,0.0333 l 0.100586,2.1e-5 v 0.03125 0.03125 l -0.166992,-6.15e-4 c -0.09185,-3.38e-4 -0.213574,-0.002 -0.270508,-0.0036 z"
     id="path922" />
  <path
     style="fill:#03273a;fill-opacity:1;stroke-width:0.00390625"
     d="m 27.114,48.687267 c -0.884201,-0.633383 -1.690788,-1.355179 -2.429096,-2.173744 l -0.07135,-0.0791 0.02854,5.7e-5 0.02854,5.7e-5 0.05576,0.06223 c 0.259785,0.28991 0.595616,0.63047 0.911162,0.923988 0.471568,0.43865 1.025048,0.888233 1.534055,1.246087 l 0.04394,0.0309 v 0.03045 c 0,0.01675 -4.39e-4,0.03045 -9.77e-4,0.03044 -5.37e-4,-4e-6 -0.0458,-0.03212 -0.100585,-0.07136 z"
     id="path924" />
  <path
     style="fill:#03273a;fill-opacity:1;stroke-width:0.00390625"
     d="m 24.560357,46.372898 c -0.704673,-0.801797 -1.333343,-1.696308 -1.856539,-2.641602 -0.0503,-0.09089 -0.08982,-0.16403 -0.08982,-0.166257 0,-9.41e-4 0.01052,-0.0017 0.02337,-0.0017 h 0.02337 l 0.01038,0.02051 c 0.01931,0.03815 0.115348,0.21127 0.180391,0.325196 0.456593,0.799743 1.00235,1.575568 1.602003,2.277343 0.05596,0.06549 0.187415,0.2164 0.206713,0.237305 l 0.0099,0.01074 h -0.02786 -0.02786 z"
     id="path926" />
  <path
     style="fill:#03273a;fill-opacity:1;stroke-width:0.00390625"
     d="m 22.599615,43.540118 c -0.08108,-0.150529 -0.241373,-0.468982 -0.323555,-0.642806 -0.321859,-0.680762 -0.582735,-1.355477 -0.802746,-2.076172 -0.03071,-0.100596 -0.08197,-0.276934 -0.08197,-0.281979 0,-0.0017 0.01111,-0.0032 0.02469,-0.0032 h 0.02469 l 0.0304,0.105945 c 0.220106,0.76694 0.509405,1.531888 0.855928,2.263195 0.06046,0.127605 0.219263,0.444853 0.279048,0.557483 0.02591,0.0488 0.04814,0.09143 0.0494,0.09473 0.0019,0.005 -0.0016,0.006 -0.02058,0.0059 l -0.02288,-6.4e-5 -0.01243,-0.02308 z"
     id="path928" />
  <path
     style="fill:#03273a;fill-opacity:1;stroke-width:0.00390625"
     d="m 21.386489,40.527195 c -0.001,-0.0048 -0.01709,-0.06416 -0.03571,-0.131836 -0.09102,-0.330813 -0.20073,-0.801536 -0.254008,-1.089844 -0.08734,-0.472622 -0.150854,-1.018987 -0.183689,-1.580078 -0.0033,-0.05586 -0.007,-0.116943 -0.0083,-0.135742 l -0.0023,-0.03418 h 0.01173 c 0.01397,0 0.01161,-0.01523 0.02602,0.167969 0.0709,0.901657 0.236589,1.849909 0.475555,2.721679 l 0.0249,0.09082 h -0.02616 c -0.02398,0 -0.02632,-7.35e-4 -0.02802,-0.0088 z"
     id="path930" />
  <path
     style="fill:#03273a;fill-opacity:1;stroke-width:0.00390625"
     d="m 20.901553,37.513327 c -0.01407,-0.236316 -0.01984,-0.506566 -0.01983,-0.928515 1.6e-5,-0.408584 0.0025,-0.54351 0.01563,-0.853516 0.01029,-0.24278 0.03346,-0.626734 0.04307,-0.713867 0.0022,-0.02031 0.0024,-0.02051 0.01565,-0.02051 0.0105,0 0.01339,0.0016 0.01339,0.0073 0,0.004 -0.0052,0.06249 -0.01164,0.129883 -0.02845,0.299563 -0.04584,0.574932 -0.05941,0.940898 -0.0062,0.166461 -0.0062,0.745581 5e-6,0.914063 0.0062,0.167934 0.01506,0.353332 0.02232,0.464843 0.0031,0.04834 0.0057,0.09053 0.0057,0.09375 4e-6,0.0037 -0.0042,0.0062 -0.01121,0.0066 l -0.01122,7.81e-4 z"
     id="path932" />
  <path
     style="fill:#03273a;fill-opacity:1;stroke-width:0.00390625"
     d="m 20.943733,34.970815 c 0.0013,-0.01465 0.0078,-0.08639 0.01424,-0.159441 0.07519,-0.847169 0.207127,-1.607893 0.384972,-2.219656 l 0.006,-0.02058 h 0.0401 0.0401 l -0.02095,0.07715 c -0.197334,0.726621 -0.34671,1.517453 -0.428126,2.266602 l -0.0087,0.08008 -0.01503,0.0012 -0.01503,0.0012 z"
     id="path934" />
  <path
     style="fill:#03273a;fill-opacity:1;stroke-width:0.00390625"
     d="m 21.354837,32.550632 c 0.219224,-0.744206 0.611832,-1.720488 1.067441,-2.654365 l 0.07381,-0.151299 0.01806,-0.0012 0.01806,-0.0012 -0.05727,0.114477 c -0.379312,0.758204 -0.681866,1.511978 -0.929144,2.314843 -0.02841,0.09226 -0.08423,0.282355 -0.103748,0.353345 l -0.01262,0.0459 h -0.04032 -0.04032 z"
     id="path936" />
  <path
     style="fill:#03273a;fill-opacity:1;stroke-width:0.00390625"
     d=""
     id="path938" />
  <path
     style="fill:#03273a;fill-opacity:1;stroke-width:0.00390625"
     d="m 22.50882,29.718909 c 0.131339,-0.261187 0.295925,-0.57253 0.418094,-0.790897 0.299184,-0.534767 0.543244,-0.915688 0.85497,-1.334411 l 0.07197,-0.09668 h 0.04804 c 0.02642,0 0.04804,8.14e-4 0.04804,0.0018 0,9.94e-4 -0.03664,0.05065 -0.08142,0.110352 -0.487987,0.650554 -0.936571,1.3628 -1.29612,2.057931 l -0.03848,0.07439 -0.01877,0.0011 -0.01877,0.0011 z"
     id="path940" />
  <path
     style="fill:#03273a;fill-opacity:1;stroke-width:0.00390625"
     d="m 23.86864,27.478889 c 0.02091,-0.02915 0.148295,-0.192227 0.217816,-0.278856 0.313776,-0.39099 0.636779,-0.752407 0.996186,-1.11466 0.385683,-0.388736 0.72782,-0.699284 1.165996,-1.058337 l 0.02722,-0.0223 h 0.04819 0.04818 l -0.06954,0.05736 c -0.214039,0.176554 -0.460421,0.39193 -0.653447,0.571212 -0.1964,0.182416 -0.509977,0.492479 -0.683051,0.675397 -0.344629,0.36423 -0.686336,0.763638 -0.980634,1.146223 l -0.0323,0.04199 h -0.04877 -0.04877 z"
     id="path942" />
  <path
     style="fill:#03273a;fill-opacity:1;stroke-width:0.00390625"
     d="m 26.28021,25.001322 c 0.002,-0.0019 0.04678,-0.0376 0.09942,-0.07939 1.296196,-1.02907 2.743389,-1.835925 4.3125,-2.404353 0.794125,-0.287681 1.66201,-0.520951 2.466796,-0.663025 0.05586,-0.0099 0.104639,-0.01861 0.108399,-0.01945 0.0059,-0.0013 0.0068,0.0016 0.0068,0.02102 v 0.02254 l -0.03027,0.0048 c -0.01665,0.0026 -0.08236,0.01428 -0.146028,0.02587 -2.423215,0.441062 -4.688745,1.470504 -6.611713,3.004319 l -0.114187,0.09108 h -0.04773 c -0.02743,0 -0.04615,-0.0015 -0.04402,-0.0034 z"
     id="path944" />
  <path
     style="fill:#03273a;fill-opacity:1;stroke-width:0.00390625"
     d="m 38.758531,21.976847 c -0.245223,-0.05226 -0.586854,-0.112105 -0.886719,-0.155336 -1.181922,-0.170396 -2.378935,-0.197306 -3.570312,-0.08026 -0.312228,0.03067 -0.645336,0.07398 -0.926758,0.120492 l -0.100586,0.01662 v -0.02217 -0.02218 l 0.02637,-0.0045 c 0.858508,-0.14752 1.81853,-0.22098 2.665039,-0.203927 0.540559,0.01089 0.894458,0.03588 1.583984,0.111838 0.533534,0.05878 1.134155,0.137623 1.280274,0.168066 l 0.01074,0.0022 v 0.04266 c 0,0.03173 -0.0013,0.04256 -0.0049,0.04227 -0.0027,-2.12e-4 -0.0374,-0.0073 -0.07715,-0.01578 z"
     id="path946" />
  <path
     style="fill:#03273a;fill-opacity:1;stroke-width:0.00390625"
     d="m 44.278062,24.369019 c -0.331493,-0.233865 -0.719334,-0.482387 -1.087891,-0.697102 -1.318499,-0.768135 -2.764699,-1.332192 -4.24414,-1.655328 -0.05049,-0.01103 -0.09487,-0.02096 -0.09863,-0.02208 -0.006,-0.0018 -0.0068,-0.0074 -0.0068,-0.04499 0,-0.03907 6.21e-4,-0.04279 0.0068,-0.04101 0.0038,0.0011 0.02178,0.0049 0.04004,0.0084 0.01826,0.0036 0.08945,0.02047 0.158203,0.0376 1.874027,0.466897 3.609509,1.238324 5.141963,2.28562 0.06304,0.04308 0.115414,0.08041 0.116386,0.08294 9.73e-4,0.0025 0.0012,0.01794 6.16e-4,0.03423 l -0.0012,0.02962 z"
     id="path948" />
  <path
     style="fill:#03273a;fill-opacity:1;stroke-width:0.00390625"
     d="m 48.183463,28.41782 c -0.867548,-1.336818 -1.988218,-2.564868 -3.245245,-3.556197 -0.18828,-0.148483 -0.421189,-0.323402 -0.571429,-0.429155 l -0.06105,-0.04297 -1.69e-4,-0.03451 -1.69e-4,-0.03451 0.01855,0.01335 c 0.01021,0.0073 0.07129,0.05099 0.135743,0.09699 0.649717,0.463699 1.261282,0.982038 1.836197,1.556291 0.616611,0.6159 1.148832,1.249326 1.646039,1.959041 0.07446,0.106288 0.278067,0.410224 0.331675,0.495117 l 0.02775,0.04395 h -0.03709 -0.03709 z"
     id="path950" />
  <path
     style="fill:#03273a;fill-opacity:1;stroke-width:0.00390625"
     d="m 50.014948,32.426163 c -0.396162,-1.37888 -1.002783,-2.719191 -1.773565,-3.918644 l -0.01453,-0.0226 0.03811,0.0011 0.03811,0.0011 0.0598,0.0957 c 0.736836,1.179306 1.315463,2.490471 1.698862,3.849609 0.01818,0.06445 0.03381,0.119385 0.03472,0.12207 0.0012,0.0035 -0.0045,0.0049 -0.02078,0.0049 h -0.02245 z"
     id="path952" />
  <path
     style="fill:#03273a;fill-opacity:1;stroke-width:0.00390625"
     d="m 50.59323,36.378757 c -0.0072,-0.667868 -0.0548,-1.290129 -0.149409,-1.952148 -0.08727,-0.61069 -0.225652,-1.274209 -0.383908,-1.840821 l -0.0074,-0.02637 h 0.02291 c 0.0126,0 0.02291,6.84e-4 0.02291,0.0015 0,8.36e-4 0.01147,0.04434 0.02549,0.09668 0.329332,1.229668 0.504256,2.490402 0.520095,3.74848 l 0.0026,0.204101 h -0.0254 -0.0254 z"
     id="path954" />
  <path
     style="fill:#03273a;fill-opacity:1;stroke-width:0.00390625"
     d="m 50.084214,40.408054 c 0.01966,-0.06752 0.0945,-0.367471 0.12889,-0.516602 0.236771,-1.026668 0.362431,-2.058001 0.379923,-3.118164 l 0.0027,-0.163086 h 0.02477 0.02477 l -4.7e-5,0.09277 c -5.4e-5,0.106127 -0.0057,0.342921 -0.01169,0.489258 -0.04255,1.041555 -0.193308,2.066877 -0.452173,3.075195 l -0.03786,0.147461 h -0.03063 c -0.02733,0 -0.03042,-7.37e-4 -0.02864,-0.0068 z"
     id="path956" />
  <path
     style="fill:#03273a;fill-opacity:1;stroke-width:0.00390625"
     d="m 48.390116,44.31821 c 0.722267,-1.167034 1.292739,-2.466157 1.653995,-3.766601 0.0194,-0.06982 0.03597,-0.129151 0.03683,-0.131836 0.0018,-0.0055 0.0604,-0.0072 0.0604,-0.0018 0,0.0017 -0.01056,0.04154 -0.02347,0.08848 -0.362521,1.318255 -0.907612,2.580929 -1.621889,3.757025 l -0.05872,0.09668 h -0.03657 -0.03657 z"
     id="path958" />
  <path
     style="fill:#03273a;fill-opacity:1;stroke-width:0.00390625"
     d="m 46.137384,47.197641 c -7.6e-5,-0.0272 -0.0034,-0.03666 -0.0127,-0.03666 -0.0055,0 0.03617,-0.04452 0.138151,-0.147467 0.784962,-0.792356 1.437916,-1.608717 2.024575,-2.531244 l 0.07763,-0.122071 h 0.03464 c 0.01905,0 0.03464,9.7e-4 0.03464,0.0022 0,0.0076 -0.202632,0.322343 -0.311742,0.484174 -0.55662,0.825571 -1.197312,1.596612 -1.900172,2.286764 l -0.08496,0.08343 z"
     id="path960" />
  <path
     style="fill:#03273a;fill-opacity:1;stroke-width:0.00390625"
     d="m 35.688218,51.418796 v -0.03125 h 0.119141 0.119141 v 0.03125 0.03125 h -0.119141 -0.119141 z"
     id="path962" />
  <path
     style="fill:#03273a;fill-opacity:1;stroke-width:0.00552427"
     d="m 61.936582,44.664509 c 4e-6,-0.0023 0.01876,-0.06505 0.04167,-0.139487 0.290351,-0.943147 0.588724,-2.088988 0.828576,-3.181981 0.03969,-0.180884 0.05053,-0.216985 0.07326,-0.243995 0.03607,-0.04287 0.09524,-0.04973 0.307731,-0.03568 0.291237,0.01926 0.381537,0.02228 0.671199,0.02243 l 0.301073,1.62e-4 -0.185063,0.01326 c -0.16542,0.01185 -0.230594,0.01349 -0.614024,0.01548 l -0.428962,0.0022 -0.0028,0.01224 c -0.0016,0.0067 -0.0085,0.04614 -0.01552,0.08758 -0.009,0.05334 -0.01465,0.07458 -0.01944,0.07275 -0.0082,-0.0032 -0.03579,0.03366 -0.05809,0.07757 -0.02045,0.04027 -0.03546,0.09798 -0.09866,0.379248 -0.22847,1.016773 -0.455899,1.887229 -0.726371,2.78009 l -0.04309,0.14225 h -0.01573 c -0.0087,0 -0.01572,-0.0019 -0.01572,-0.0041 z"
     id="path964" />
  <path
     style="fill:#03273a;fill-opacity:1;stroke-width:0.00390625"
     d="m 63.84826,41.110238 c 0.0064,-7.17e-4 0.15498,-0.01015 0.330078,-0.02097 0.488776,-0.03019 0.61952,-0.03992 0.816406,-0.06072 0.573855,-0.06063 1.056573,-0.159412 1.496094,-0.306141 0.576239,-0.192372 1.041621,-0.456552 1.441337,-0.818196 0.162764,-0.147262 0.330857,-0.325164 0.467274,-0.494542 0.177325,-0.220172 0.386652,-0.54843 0.529929,-0.831014 l 0.03216,-0.06344 0.04395,-4.1e-5 0.04395,-4.1e-5 v 0.03776 0.03776 l -0.03672,0.07091 c -0.165849,0.32029 -0.391947,0.645255 -0.64688,0.929744 -0.07211,0.08048 -0.257559,0.26591 -0.337889,0.337871 -0.396389,0.355093 -0.840192,0.635733 -1.3192,0.8342 -0.368037,0.15249 -0.723667,0.248334 -1.14369,0.308231 -0.181488,0.02588 -0.275393,0.03218 -0.55616,0.03733 -0.180388,0.0033 -1.188806,0.0044 -1.160637,0.0013 z"
     id="path966" />
  <path
     style="fill:#03273a;fill-opacity:1;stroke-width:0.00390625"
     d="m 63.852166,41.110296 c 0.0086,-9.27e-4 0.169434,-0.0113 0.357422,-0.02306 0.401742,-0.02512 0.523921,-0.03374 0.664062,-0.04684 1.180765,-0.110362 2.060531,-0.392463 2.740235,-0.878669 0.289143,-0.20683 0.601578,-0.511991 0.835274,-0.815827 0.16215,-0.210817 0.354766,-0.519129 0.484235,-0.775092 l 0.02815,-0.05565 0.04395,-1.6e-5 0.04395,-1.5e-5 v 0.03717 0.03717 l -0.02393,0.04779 c -0.10749,0.214647 -0.285671,0.49309 -0.451327,0.705291 -0.269765,0.345561 -0.598003,0.660355 -0.952475,0.913464 -0.587533,0.419527 -1.248528,0.689478 -1.96289,0.801647 -0.189697,0.02979 -0.286804,0.03974 -0.464844,0.04765 -0.08659,0.0038 -1.375658,0.0086 -1.341797,0.005 z"
     id="path968" />
  <path
     style="fill:#03273a;fill-opacity:1;stroke-width:0.0078125"
     d="m 10.695107,58.562573 c -0.208383,-0.683878 -0.260294,-1.337014 -0.161293,-2.029353 0.08952,-0.626014 0.323635,-1.255344 0.669914,-1.800781 0.121965,-0.192112 0.295693,-0.42175 0.439574,-0.581039 0.03832,-0.04242 0.07612,-0.08549 0.08399,-0.0957 0.01382,-0.01792 0.01801,-0.01857 0.119108,-0.01857 h 0.104784 l -0.111594,0.12695 c -0.431213,0.49054 -0.714097,0.901004 -0.892434,1.294921 -0.14921,0.329582 -0.240505,0.659333 -0.288755,1.042969 -0.03374,0.268231 -0.03918,0.377421 -0.03914,0.785156 2.8e-5,0.321998 0.0024,0.408267 0.01429,0.515471 0.01857,0.167647 0.04466,0.314699 0.07981,0.449793 l 0.02835,0.108955 -0.0012,0.16391 c -6.58e-4,0.09015 -0.0022,0.164883 -0.0034,0.166072 -0.0012,0.0012 -0.02011,-0.05675 -0.04205,-0.128754 z"
     id="path970" />
  <path
     style="fill:#03273a;fill-opacity:1;stroke-width:0.00390625"
     d="M 8.741845,41.758986 C 8.658533,41.365542 8.6416541,41.288822 8.6377917,41.286024 c -0.00193,-0.0014 -0.00365,-0.01221 -0.00383,-0.02402 -4.752e-4,-0.03189 -0.012472,-0.08057 -0.022822,-0.09261 -0.00737,-0.0086 -0.012968,-0.01062 -0.032909,-0.01206 -0.018435,-0.0013 -0.024143,-4.92e-4 -0.024528,0.0036 -2.755e-4,0.0029 -0.00252,-0.0052 -0.00499,-0.01808 l -0.00449,-0.02344 -0.3807481,-0.0022 c -0.4112669,-0.0024 -0.3637228,-6.22e-4 -0.9080917,-0.03302 l -0.15625,-0.0093 0.2988281,0.0017 c 0.1643555,9.52e-4 0.5054828,0.0029 0.7580606,0.0043 l 0.4592325,0.0025 0.09305,0.468312 c 0.051177,0.257571 0.092266,0.469095 0.091308,0.470053 -9.581e-4,9.59e-4 -0.026952,-0.117311 -0.057764,-0.262821 z"
     id="path972" />
  <path
     style="fill:#03273a;fill-opacity:1;stroke-width:0.176777"
     d="m 76.356457,91.722263 c -1.464665,-0.23585 -2.824312,-0.693578 -4.507806,-1.517564 -1.655777,-0.810419 -2.047996,-1.100569 -3.633222,-2.687732 -1.465591,-1.467385 -1.921162,-2.060214 -2.59918,-3.382288 -1.242115,-2.422009 -1.611266,-3.947953 -1.600781,-6.617068 0.01059,-2.697016 0.321676,-4.0925 1.398947,-6.275573 1.797633,-3.642873 4.882346,-6.270976 8.820721,-7.515051 1.674298,-0.528885 5.127399,-0.674528 6.925776,-0.292111 2.863626,0.608939 4.826009,1.712387 7.125124,4.006463 2.288694,2.283676 3.398912,4.257481 4.009309,7.127972 0.334476,1.572921 0.224321,5.184461 -0.205849,6.748998 -1.238718,4.505234 -4.991322,8.334309 -9.634243,9.830574 -1.36259,0.439118 -2.046187,0.552298 -3.623922,0.599994 -1.069499,0.03233 -2.183193,0.02035 -2.474874,-0.02661 z"
     id="path974" />
  <path
     style="fill:#03273a;fill-opacity:1;stroke-width:0.176777"
     d="m 34.203041,69.814147 c -1.854386,-0.804428 -2.631385,-2.014605 -2.837413,-4.419274 -0.07984,-0.931875 -0.171904,-1.719037 -0.204585,-1.749246 -0.03268,-0.03021 -1.014014,-0.308184 -2.18074,-0.617716 -2.747858,-0.72901 -4.98501,-1.671997 -7.38345,-3.112216 l -1.931378,-1.159758 -1.088622,1.04535 c -1.289027,1.237787 -1.88254,1.57257 -3.048129,1.719364 -1.842878,0.23209 -3.449735,-0.692868 -4.337932,-2.497052 -0.481593,-0.978254 -0.543009,-1.257374 -0.457966,-2.081362 0.126394,-1.224637 0.477053,-1.884853 1.72625,-3.250165 l 1.015355,-1.109735 -0.982933,-1.630304 C 10.830418,48.196945 9.4425042,44.738967 8.910376,42.029689 L 8.693372,40.924835 7.3463521,40.923774 C 5.6577187,40.922537 4.8823325,40.709521 3.9342259,39.986375 2.8710984,39.175574 2.1986333,37.81628 2.1986333,36.478188 c 0,-1.255312 0.3706488,-2.069592 1.4194502,-3.118394 0.8512,-0.851199 1.4213884,-1.042595 3.5575297,-1.19416 L 8.7054478,32.057088 8.819173,31.408631 c 0.4457949,-2.541903 1.996361,-6.509297 3.553489,-9.092223 0.529597,-0.878483 0.962903,-1.674093 0.962903,-1.768022 0,-0.09393 -0.438206,-0.644097 -0.973792,-1.222593 -1.21719,-1.314711 -1.445919,-1.756637 -1.596064,-3.083748 -0.09901,-0.875151 -0.05291,-1.216585 0.263581,-1.952301 0.738722,-1.717206 2.248891,-2.739678 4.071805,-2.756849 1.270893,-0.01197 2.075591,0.379202 3.477134,1.690278 l 1.115653,1.043638 1.113118,-0.702998 c 2.489893,-1.572509 5.334651,-2.796688 8.326948,-3.5833184 1.056776,-0.2778107 1.964839,-0.5485386 2.017918,-0.601617 0.05308,-0.053079 0.152612,-0.8383129 0.221183,-1.7449652 0.06857,-0.9066524 0.226943,-1.8414861 0.351931,-2.0774085 0.473882,-0.8944726 1.138905,-1.6116677 1.917548,-2.0679835 0.671179,-0.3933359 1.014428,-0.4714918 2.049464,-0.4666502 1.465065,0.00685 2.378644,0.4033329 3.270852,1.4195 0.82586,0.9406029 1.091196,1.7022931 1.218974,3.4992564 l 0.112193,1.5777801 1.237437,0.247621 c 2.535922,0.5074583 6.661105,2.2291613 9.027936,3.7679343 0.590141,0.383676 1.129107,0.697592 1.197701,0.697592 0.0686,0 0.630321,-0.470361 1.248281,-1.045247 1.436909,-1.336754 2.040195,-1.64172 3.270276,-1.653152 2.436712,-0.02265 4.490015,1.979111 4.484555,4.371973 -0.0027,1.199242 -0.339397,1.900596 -1.612672,3.359634 l -1.075589,1.232509 0.616365,1.065589 c 1.9489,3.369309 3.312124,6.67219 3.844627,9.314933 l 0.225637,1.119819 1.495646,0.140458 c 2.090517,0.196321 2.738421,0.404152 3.552367,1.139502 1.751063,1.58198 2.009701,3.733172 0.688637,5.727618 -0.818978,1.236429 -1.982738,1.785963 -4.04286,1.909056 l -1.656493,0.09898 -0.402291,1.59099 c -0.791882,3.131762 -1.896701,5.895319 -3.215579,8.04334 -1.245588,2.028654 -1.233302,1.770631 -0.142506,2.993107 1.309947,1.468084 1.676636,2.23374 1.674506,3.496394 -0.0054,3.192429 -3.259453,5.363401 -6.05254,4.037993 -0.356608,-0.169221 -1.161665,-0.778008 -1.789016,-1.352863 l -1.140639,-1.045189 -1.474252,0.915873 c -2.612702,1.623127 -5.851214,2.963147 -8.677903,3.590711 l -1.370019,0.304162 v 1.187607 c 0,0.653183 -0.124649,1.607348 -0.276999,2.120364 -0.330609,1.113283 -1.432674,2.395883 -2.46304,2.866526 -0.86155,0.393532 -2.417943,0.418295 -3.262543,0.05191 z m 4.51143,-18.618081 c 7.056957,-1.456477 11.921461,-7.363926 11.951485,-14.513872 0.02158,-5.138573 -2.341963,-9.73029 -6.452222,-12.534907 -1.219913,-0.832402 -3.538847,-1.870903 -4.980383,-2.230393 -1.699126,-0.423727 -4.868126,-0.431752 -6.684021,-0.01694 -3.521163,0.804382 -6.683256,2.787146 -8.711819,5.462677 -0.974467,1.285255 -2.214589,3.829991 -2.653467,5.444924 -0.436428,1.605924 -0.438475,5.815158 -0.0036,7.410159 0.725919,2.662482 2.508514,5.638846 4.405146,7.355187 3.640083,3.29406 8.382367,4.602779 13.128883,3.623151 z"
     id="path976" />
</svg>
