<svg xmlns="http://www.w3.org/2000/svg" viewBox="0 0 209 209"><defs><style>.cls-1{fill:#f2f2f2;}.cls-2{fill:#004813;}.cls-3{fill:#e6e6e6;}.cls-4,.cls-8{fill:#fff;}.cls-4{stroke:#79af1d;stroke-miterlimit:10;stroke-width:5px;}.cls-5,.cls-7{fill:none;stroke:#fff;}.cls-5{stroke-linecap:round;stroke-linejoin:round;stroke-width:8px;}.cls-6{fill:#79af1d;}.cls-7{stroke-width:12px;}.cls-8{fill-rule:evenodd;}</style></defs><g id="Capa_2" data-name="Capa 2"><g id="Capa_2-2" data-name="Capa 2"><circle class="cls-1" cx="104.5" cy="104.5" r="104.5"/><path class="cls-2" d="M58,42h93a0,0,0,0,1,0,0V156a0,0,0,0,1,0,0H78.85A20.85,20.85,0,0,1,58,135.15V42A0,0,0,0,1,58,42Z"/><ellipse class="cls-3" cx="104.71" cy="182.76" rx="23.71" ry="3.5"/><polygon class="cls-4" points="117.5 36 117.5 29.5 91.5 29.5 91.5 36 82 36 82 50.5 127 50.5 127 36 117.5 36"/><line class="cls-5" x1="79.52" y1="81" x2="114.52" y2="81"/><line class="cls-5" x1="79.52" y1="99" x2="102.52" y2="99"/><circle class="cls-6" cx="141.52" cy="146" r="22"/><circle class="cls-7" cx="141.52" cy="146" r="22"/><circle class="cls-6" cx="141.52" cy="146" r="22"/><path class="cls-8" d="M157,158.24s-.28.74-.66,0c0,0-4.25-12.81-14.59-9.58v4s-.17,2.33-2.21.81l-10.17-8.78s-2.16-1.17.13-2.78l10.28-8.83s1.55-1.11,1.92.7v4.29S161,139,157,158.24Z"/></g></g></svg>