<svg xmlns="http://www.w3.org/2000/svg" viewBox="0 0 209 209"><defs><style>.cls-1{fill:#f2f2f2;}.cls-2{fill:#e6e6e6;}.cls-3{fill:#fff;}.cls-4{fill:#79af1d;}.cls-5{fill:#004b2b;}</style></defs><g id="Capa_2" data-name="Capa 2"><g id="Capa_2-2" data-name="Capa 2"><circle class="cls-1" cx="104.5" cy="104.5" r="104.5"/><ellipse class="cls-2" cx="104.5" cy="172.76" rx="23.71" ry="3.5"/><polygon class="cls-3" points="142.58 107.25 130.65 98.99 118.72 107.25 118.72 62.28 142.58 62.28 142.58 107.25"/><path class="cls-4" d="M142.58,109.75a2.44,2.44,0,0,1-1.42-.45L130.65,102l-10.51,7.27a2.5,2.5,0,0,1-3.92-2v-45a2.5,2.5,0,0,1,2.5-2.5h23.86a2.5,2.5,0,0,1,2.5,2.5v45a2.51,2.51,0,0,1-2.5,2.5ZM130.65,96.49a2.51,2.51,0,0,1,1.42.44l8,5.55V64.78H121.22v37.7l8-5.55A2.51,2.51,0,0,1,130.65,96.49Z"/><path class="cls-4" d="M112.22,71.27H52c-2.69,0-4.87,2.6-4.87,5.82v7.75c0,3.21,2.18,5.82,4.87,5.82h60.18Z"/><path class="cls-4" d="M159.28,71.27h-10.2V90.66h10.2c2.69,0,4.87-2.61,4.87-5.82V77.09C164.15,73.87,162,71.27,159.28,71.27Z"/><path class="cls-5" d="M157.26,79.15h-8.18v28.1A6.51,6.51,0,0,1,145.6,113a6.6,6.6,0,0,1-3,.74,6.48,6.48,0,0,1-3.7-1.16l-8.23-5.7-8.23,5.7a6.49,6.49,0,0,1-10.2-5.34V79.15H95.72a6.68,6.68,0,0,1-5.42-2.93L82.46,65.1A6.68,6.68,0,0,0,77,62.17H51.74c-3.81,0-6.89,3.43-6.89,7.67v68.32c0,4.23,3.08,7.67,6.89,7.67H157.26c3.81,0,6.89-3.44,6.89-7.67V86.81C164.15,82.58,161.07,79.15,157.26,79.15Z"/></g></g></svg>