<svg xmlns="http://www.w3.org/2000/svg" viewBox="0 0 209 209"><defs><style>.cls-1{fill:#f2f2f2;}.cls-2{fill:#79af1d;}.cls-3{fill:#fff;}.cls-4{fill:#004813;}.cls-5{fill:#004b2b;}.cls-6{fill:#e6e6e6;}</style></defs><g id="Capa_2" data-name="Capa 2"><g id="Capa_2-2" data-name="Capa 2"><circle class="cls-1" cx="104.5" cy="104.5" r="104.5"/><path class="cls-2" d="M116.82,95.58A17.67,17.67,0,0,0,99.38,80H87A17.56,17.56,0,0,0,69.55,95.58l-1.07,8.25h49.4Z"/><path class="cls-3" d="M93.12,73.1A14.14,14.14,0,1,1,107.26,59,14.16,14.16,0,0,1,93.12,73.1Z"/><path class="cls-2" d="M93.12,47.32A11.64,11.64,0,1,1,81.47,59,11.65,11.65,0,0,1,93.12,47.32m0-5A16.64,16.64,0,1,0,109.76,59,16.64,16.64,0,0,0,93.12,42.32Z"/><path class="cls-4" d="M132,112H54.37a4.78,4.78,0,0,0-4.8,4.79v28.36a4.78,4.78,0,0,0,4.8,4.8h9.19V163a4.77,4.77,0,0,0,4.79,4.79h49.8A4.78,4.78,0,0,0,123,163V149.91h9.18a4.78,4.78,0,0,0,4.8-4.8V116.75A5,5,0,0,0,132,112Z"/><path class="cls-5" d="M158.36,41.25H123.74a5.06,5.06,0,0,0-5.06,5.06V67.22a5.07,5.07,0,0,0,5.06,5.06h3.33a18,18,0,0,1-2.13,8.25,2.47,2.47,0,0,0,.27,2.53,2,2,0,0,0,1.6.67,1.64,1.64,0,0,0,.8-.14c5.72-2.26,10.65-7.85,13.31-11.31h17.44a5.07,5.07,0,0,0,5.07-5.06V46.31A5.24,5.24,0,0,0,158.36,41.25ZM130,60.16a3.33,3.33,0,1,1,3.33-3.33A3.3,3.3,0,0,1,130,60.16Zm10.92,0a3.33,3.33,0,1,1,3.33-3.33A3.3,3.3,0,0,1,140.92,60.16Zm11.05,0a3.33,3.33,0,1,1,3.33-3.33A3.3,3.3,0,0,1,152,60.16Z"/><ellipse class="cls-6" cx="104.64" cy="189.88" rx="23.71" ry="3.5"/></g></g></svg>