<svg xmlns="http://www.w3.org/2000/svg" viewBox="0 0 209 209"><defs><style>.cls-1{fill:#f2f2f2;}.cls-2{fill:#e6e6e6;}.cls-3{fill:#fff;}.cls-4{fill:#79af1d;}.cls-5{fill:#004813;}</style></defs><g id="Capa_2" data-name="Capa 2"><g id="Capa_2-2" data-name="Capa 2"><circle class="cls-1" cx="104.5" cy="104.5" r="104.5"/><ellipse class="cls-2" cx="104.5" cy="190" rx="23.71" ry="3.5"/><path class="cls-3" d="M64.46,115a13.31,13.31,0,1,1,13.31-13.31A13.32,13.32,0,0,1,64.46,115Z"/><path class="cls-4" d="M64.46,90.83a10.81,10.81,0,1,1-10.81,10.81A10.82,10.82,0,0,1,64.46,90.83m0-5a15.81,15.81,0,1,0,15.81,15.81A15.81,15.81,0,0,0,64.46,85.83Z"/><path class="cls-4" d="M70.4,121.65H58.66A16.9,16.9,0,0,0,42,136.45l-1.6,13.63A3.4,3.4,0,0,0,43,153.85,102.53,102.53,0,0,0,64.46,156c3,0,6.09-.14,9-.43l1.45-12.18a23.54,23.54,0,0,1,8.56-15.52A16.89,16.89,0,0,0,70.4,121.65Z"/><path class="cls-3" d="M144.51,115a13.31,13.31,0,1,1,13.31-13.31A13.32,13.32,0,0,1,144.51,115Z"/><path class="cls-4" d="M144.51,90.83a10.81,10.81,0,1,1-10.81,10.81,10.82,10.82,0,0,1,10.81-10.81m0-5a15.81,15.81,0,1,0,15.81,15.81,15.81,15.81,0,0,0-15.81-15.81Z"/><path class="cls-4" d="M167,136.45a16.78,16.78,0,0,0-16.68-14.8H138.56a16.59,16.59,0,0,0-13,6.38,23.57,23.57,0,0,1,8.56,15.52l1.45,12.18c2.9.29,5.95.44,9,.44A102.52,102.52,0,0,0,166,154a3.35,3.35,0,0,0,2.61-3.77Z"/><path class="cls-5" d="M110.29,129.63H98.68A16.77,16.77,0,0,0,82,144.42l-1.6,13.63A3.4,3.4,0,0,0,83,161.82a106.77,106.77,0,0,0,42.93,0,3.35,3.35,0,0,0,2.61-3.77L127,144.42A16.77,16.77,0,0,0,110.29,129.63Z"/><circle class="cls-5" cx="104.48" cy="109.62" r="15.81"/><path class="cls-5" d="M84.77,70.39H96.46l4.4,8.69a4.16,4.16,0,0,0,7.4,0l4.4-8.69h11.69A5.71,5.71,0,0,0,130,64.71v-21A5.72,5.72,0,0,0,124.35,38H84.77a5.73,5.73,0,0,0-5.69,5.69V64.6A5.75,5.75,0,0,0,84.77,70.39ZM117.91,50a4.08,4.08,0,1,1-4.07,4.08A4.08,4.08,0,0,1,117.91,50ZM104.5,50a4.08,4.08,0,1,1-4.07,4.08A4.08,4.08,0,0,1,104.5,50ZM91.1,50A4.08,4.08,0,1,1,87,54.09,4.08,4.08,0,0,1,91.1,50Z"/></g></g></svg>