<svg xmlns="http://www.w3.org/2000/svg" viewBox="0 0 209 209"><defs><style>.cls-1{fill:#f2f2f2;}.cls-2{fill:#e6e6e6;}.cls-3{fill:#fff;}.cls-4{fill:#79af1d;}.cls-5{fill:#004813;}</style></defs><g id="Capa_2" data-name="Capa 2"><g id="Capa_2-2" data-name="Capa 2"><circle class="cls-1" cx="104.5" cy="104.5" r="104.5"/><ellipse class="cls-2" cx="104.77" cy="184.5" rx="23.71" ry="3.5"/><polygon class="cls-3" points="122.05 77.47 110.12 69.21 98.19 77.47 98.19 32.5 122.05 32.5 122.05 77.47"/><path class="cls-4" d="M122.05,80a2.44,2.44,0,0,1-1.42-.45l-10.51-7.27-10.5,7.27a2.5,2.5,0,0,1-3.93-2v-45a2.5,2.5,0,0,1,2.5-2.5h23.86a2.5,2.5,0,0,1,2.5,2.5v45a2.51,2.51,0,0,1-2.5,2.5ZM110.12,66.71a2.49,2.49,0,0,1,1.43.44l8,5.54V35H100.69V72.69l8-5.54A2.45,2.45,0,0,1,110.12,66.71Z"/><path class="cls-4" d="M137.32,136H78.44c-1.65,0-3.11.91-3.11,2.37,0,1.83,1.47,2.75,3.11,2.75h58.88V136Z"/><path class="cls-5" d="M146.1,59.05v91.61H77.71c-7.5,0-12.8-4.75-12.8-12.06v-.37c0-7.32,5.3-11.34,12.8-11.34h59.61V42.59h-8.77V77.47a6.5,6.5,0,0,1-10.2,5.34l-8.23-5.7-8.23,5.7a6.51,6.51,0,0,1-10.2-5.34V42.59H69.29a11,11,0,0,0-11,11v85c0,11.16,8.59,18.66,19.38,18.66h73.51V59.05Z"/></g></g></svg>