<svg xmlns="http://www.w3.org/2000/svg" viewBox="0 0 20 20" fill="#BFC5D2"><g id="Capa_2" data-name="Capa 2"><g id="Capa_1-2" data-name="Capa 1"><path d="M13.52,12.46a.39.39,0,0,0-.39.39v2.7a2,2,0,0,1-2,1.95H7a.39.39,0,0,0-.39.39v.78l-.93-.94a.4.4,0,0,0-.36-.23H2.73A2,2,0,0,1,.78,15.55v-6a2,2,0,0,1,2-1.95h4a.39.39,0,0,0,.39-.39.38.38,0,0,0-.39-.39H2.73A2.73,2.73,0,0,0,0,9.53v6a2.74,2.74,0,0,0,2.73,2.73H5.07l1.61,1.61A.39.39,0,0,0,7,20a.4.4,0,0,0,.15,0,.38.38,0,0,0,.24-.36V18.28h3.83a2.74,2.74,0,0,0,2.74-2.73v-2.7A.4.4,0,0,0,13.52,12.46Z"/><path d="M14.32,0h-1a5.68,5.68,0,0,0,0,11.36h1a5.81,5.81,0,0,0,1.44-.19l1.46,1.46a.43.43,0,0,0,.28.11l.15,0a.38.38,0,0,0,.24-.36V10.09A5.67,5.67,0,0,0,14.32,0Zm2.94,9.59a.42.42,0,0,0-.15.31v1.51l-1-.95a.36.36,0,0,0-.27-.12l-.12,0a5,5,0,0,1-1.44.21h-1a4.9,4.9,0,0,1,0-9.79h1a4.91,4.91,0,0,1,4.9,4.9A4.83,4.83,0,0,1,17.26,9.59Z"/><path d="M15.59,4.27a1.66,1.66,0,0,0-3.31.12.39.39,0,0,0,.39.39.38.38,0,0,0,.39-.39.88.88,0,0,1,1.75-.06.87.87,0,0,1-.68.91.75.75,0,0,0-.58.73v.94a.39.39,0,0,0,.39.39.4.4,0,0,0,.39-.39V6A1.65,1.65,0,0,0,15.59,4.27Z"/><path d="M14.21,8.17a.39.39,0,0,0-.27-.11.39.39,0,0,0-.28.11.41.41,0,0,0,0,.56.39.39,0,0,0,.28.11.39.39,0,0,0,.27-.11.39.39,0,0,0,0-.56Z"/><path d="M10.74,12.11H2.5a.39.39,0,0,0,0,.78h8.24a.39.39,0,1,0,0-.78Z"/><path d="M11,14.41a.41.41,0,0,0-.28-.11.39.39,0,0,0-.27.11.36.36,0,0,0-.12.28.41.41,0,0,0,.39.39A.38.38,0,0,0,11,15a.39.39,0,0,0,.11-.27A.39.39,0,0,0,11,14.41Z"/><path d="M9.21,14.3H2.5a.38.38,0,0,0-.39.39.39.39,0,0,0,.39.39H9.21a.4.4,0,0,0,.39-.39A.39.39,0,0,0,9.21,14.3Z"/><path d="M8.2,9.92H2.5a.39.39,0,0,0-.39.39.38.38,0,0,0,.39.39H8.2a.38.38,0,0,0,.39-.39A.39.39,0,0,0,8.2,9.92Z"/></g></g></svg>