<svg xmlns="http://www.w3.org/2000/svg" viewBox="0 0 21.04 18.63" fill="#BFC5D2"><g id="Capa_2" data-name="Capa 2"><g id="Capa_1-2" data-name="Capa 1"><circle cx="16.65" cy="6.74" r="0.95"/><path d="M18.67,3.28h-.32V2.13A2.13,2.13,0,0,0,16.22,0H9.11A2.12,2.12,0,0,0,7,2.13V3.28H5.42V2.08a1,1,0,0,0-1-1H3.82a1,1,0,0,0-1,1v1.2H2.37A2.38,2.38,0,0,0,0,5.66v10.6a2.37,2.37,0,0,0,2.37,2.37h16.3A2.37,2.37,0,0,0,21,16.26V5.66A2.38,2.38,0,0,0,18.67,3.28ZM8,2.13A1.13,1.13,0,0,1,9.11,1h7.11a1.14,1.14,0,0,1,1.13,1.13V3.28H8Zm-4.31,0a.14.14,0,0,1,.14-.14h.64a.14.14,0,0,1,.14.14v1.2H3.68ZM20,16.26a1.37,1.37,0,0,1-1.37,1.37H2.37A1.37,1.37,0,0,1,1,16.26V5.66A1.38,1.38,0,0,1,2.37,4.28h16.3A1.37,1.37,0,0,1,20,5.66Z"/><path d="M10.52,6.66a4.3,4.3,0,1,0,4.3,4.3A4.31,4.31,0,0,0,10.52,6.66Zm0,7.6a3.3,3.3,0,1,1,3.3-3.3A3.3,3.3,0,0,1,10.52,14.26Z"/><path d="M10.24,8.47A2.21,2.21,0,0,0,8,10.68a.5.5,0,0,0,.5.5.5.5,0,0,0,.5-.5,1.21,1.21,0,0,1,1.21-1.21.5.5,0,0,0,0-1Z"/></g></g></svg>