<svg xmlns="http://www.w3.org/2000/svg" viewBox="0 0 12.94 20" fill="#BFC5D2"><g id="Capa_2" data-name="Capa 2"><g id="Capa_1-2" data-name="Capa 1"><path d="M12.35,3.53h-.42L11.16.44A.59.59,0,0,0,10.59,0H2.35a.59.59,0,0,0-.57.44L1,3.53H.59A.58.58,0,0,0,0,4.12V15.88c0,.59.55.62,1,.59l.77,3.09a.59.59,0,0,0,.57.44h8.24a.59.59,0,0,0,.57-.44l.77-3.09c.46,0,1,0,1-.59V4.12A.58.58,0,0,0,12.35,3.53ZM1.17,15.3V14.12h.89a.58.58,0,0,0,.53-.35l.58-1.3,1,2.83ZM6,12.08a.59.59,0,0,0-.72.41l-.39,1.43L3.79,10.69a.59.59,0,0,0-1.09,0l-1,2.3H1.17V4.7h10.6V15.3h-6l.68-2.5A.6.6,0,0,0,6,12.08ZM2.81,1.17h7.32l.59,2.36H2.22Zm7.32,17.66H2.81l-.59-2.36h8.5Z"/><path d="M6.87,10.72S8.6,9,8.6,9a1.83,1.83,0,0,0,0-2.54,1.76,1.76,0,0,0-2.13-.31,1.74,1.74,0,0,0-.87-.23A1.81,1.81,0,0,0,4.34,9L6.05,10.7a.57.57,0,0,0,.82,0ZM5.18,8.14A.63.63,0,0,1,5.6,7.06.6.6,0,0,1,6,7.24a.59.59,0,0,0,.86,0,.58.58,0,0,1,.87,0,.65.65,0,0,1,0,.9L6.47,9.46Z"/><path d="M7.65,13.53a.59.59,0,0,0,.58.59H10a.59.59,0,0,0,0-1.18H8.23A.59.59,0,0,0,7.65,13.53Z"/></g></g></svg>