<svg xmlns="http://www.w3.org/2000/svg" viewBox="0 0 24.39 20" fill="#BFC5D2"><g id="Capa_2" data-name="Capa 2"><g id="Capa_1-2" data-name="Capa 1"><path d="M10.65,3.8,9.31,2.45A.44.44,0,1,0,8.63,3a.12.12,0,0,0,0,0L10,4.43a.44.44,0,0,0,.63,0A.45.45,0,0,0,10.65,3.8Z"/><path d="M22,2.52a.45.45,0,0,0-.63-.06l-.05,0L20,3.86a.44.44,0,0,0-.05.63.45.45,0,0,0,.63,0l.05,0L22,3.15A.44.44,0,0,0,22,2.52Z"/><path d="M14,2.24s0,0,0,0L13.45.35a.45.45,0,1,0-.87.19s0,0,0,0l.49,1.84A.44.44,0,0,0,14,2.24Z"/><path d="M20.06,11.75l-.26-.25.07-.13c.09-.17.17-.34.25-.52a5.1,5.1,0,0,0-2.84-6.62h0A5.09,5.09,0,0,0,11,6.43a5.79,5.79,0,0,0-7.13,4A5.56,5.56,0,0,0,3.61,12v.23A3.88,3.88,0,0,0,3.85,20H16.63a4.84,4.84,0,0,0,4.84-4.83A4.77,4.77,0,0,0,20.06,11.75Zm-6.23-6.7a4.15,4.15,0,0,1,3.1,0,4.22,4.22,0,0,1,2.36,5.47c-.07.15-.14.29-.22.43v0A4.82,4.82,0,0,0,15,10.62,5.72,5.72,0,0,0,13.55,8a2.06,2.06,0,0,1,2.58-.94.45.45,0,0,0,.56-.29.44.44,0,0,0-.24-.54,2.94,2.94,0,0,0-3.59,1.17,6.53,6.53,0,0,0-1.08-.64A4.22,4.22,0,0,1,13.83,5.05Zm3.73,14a4.06,4.06,0,0,1-.92.11H3.87A3,3,0,0,1,1.76,14h0a3,3,0,0,1,2.11-.88h.21a.44.44,0,0,0,.47-.41.37.37,0,0,0,0-.11c0-.09,0-.18,0-.28V12a4.9,4.9,0,0,1,9.73-.72.43.43,0,0,0,.5.37.37.37,0,0,0,.14,0,4.11,4.11,0,0,1,.85-.31A3.95,3.95,0,0,1,17.56,19Z"/><path d="M24.37,6.73a.45.45,0,0,0-.51-.31L22,6.92a.44.44,0,0,0-.32.54.45.45,0,0,0,.54.32h0l1.85-.49A.43.43,0,0,0,24.37,6.73Z"/><path d="M24.06,11.07l-1.84-.5a.44.44,0,0,0-.55.3.45.45,0,0,0,.3.56l1.85.5a.45.45,0,0,0,.55-.31A.45.45,0,0,0,24.06,11.07Z"/><path d="M17.79.05a.45.45,0,0,0-.55.31L16.73,2.2a.44.44,0,0,0,.3.55h0a.45.45,0,0,0,.55-.3h0L18.09.6A.45.45,0,0,0,17.79.05Z"/></g></g></svg>