<svg xmlns="http://www.w3.org/2000/svg" viewBox="0 0 20.23 20.25" fill="#BFC5D2">
<g id="Capa_2" data-name="Capa 2"><g id="Capa_1-2" data-name="Capa 1">
<path class="cls-1" d="M5,6a5,5,0,0,0-5,5,8.77,8.77,0,0,0,2.4,5.45l.56.63c-1,.3-1.52.82-1.52,1.42,0,1.12,1.8,1.71,3.59,1.71s3.59-.59,3.59-1.71c0-.6-.55-1.11-1.52-1.42a17.31,17.31,0,0,0,1.13-1.36.42.42,0,0,0,.07-.31.4.4,0,0,0-.16-.28.44.44,0,0,0-.59.09A14.47,14.47,0,0,1,6.06,17a.36.36,0,0,0-.15.15c-.37.36-.69.64-.88.8-.19-.16-.5-.43-.87-.79A.46.46,0,0,0,4,17C2.8,15.78.84,13.44.84,11a4.19,4.19,0,0,1,8.38,0,6.51,6.51,0,0,1-1,3.27.4.4,0,0,0,0,.32.42.42,0,0,0,.19.26.45.45,0,0,0,.32,0,.35.35,0,0,0,.25-.19A7.24,7.24,0,0,0,10.06,11,5,5,0,0,0,5,6ZM3.63,17.8c.66.65,1.14,1,1.14,1a.44.44,0,0,0,.51,0s.5-.39,1.15-1c.92.21,1.35.56,1.35.74s-.21.34-.67.53A5.81,5.81,0,0,1,5,19.41c-1.82,0-2.76-.61-2.76-.87S2.71,18,3.63,17.8Z"/><path class="cls-1" d="M3.63,10.33a.44.44,0,0,0-.25-.2.4.4,0,0,0-.32,0,.39.39,0,0,0-.2.25,2.16,2.16,0,0,0-.09.62,2.27,2.27,0,1,0,.91-1.81.43.43,0,0,0-.09.59.45.45,0,0,0,.28.16.39.39,0,0,0,.31-.08A1.44,1.44,0,0,1,5,9.62,1.42,1.42,0,1,1,3.61,11a1.67,1.67,0,0,1,.05-.39A.44.44,0,0,0,3.63,10.33Z"/><path class="cls-1" d="M18,8.59l.33-.38A6.8,6.8,0,0,0,20.23,4a4,4,0,0,0-7.61-1.54.42.42,0,0,0,.77.33A3.13,3.13,0,0,1,19.4,4c0,2.27-2.3,4.46-3.13,5.18-.15-.13-.35-.31-.59-.54a.36.36,0,0,0-.15-.15c-.9-.91-2.39-2.68-2.39-4.49a.41.41,0,0,0-.41-.42.42.42,0,0,0-.42.42,6.8,6.8,0,0,0,1.87,4.25l.33.38c-.71.25-1.1.65-1.1,1.13s.35.84,1,1.09a5.52,5.52,0,0,0,3.76,0c.63-.25,1-.64,1-1.09S18.73,8.84,18,8.59Zm.26,1.13c0,.14-.67.58-2,.58s-2-.44-2-.57.25-.31.92-.46A10.17,10.17,0,0,0,16,10a.42.42,0,0,0,.52,0,9.43,9.43,0,0,0,.84-.74,2.16,2.16,0,0,1,.71.26C18.25,9.63,18.29,9.71,18.29,9.72Z"/><path class="cls-1" d="M18.1,4a1.83,1.83,0,1,0-1.83,1.83A1.83,1.83,0,0,0,18.1,4Zm-.83,0a1,1,0,1,1-1-1A1,1,0,0,1,17.27,4Z"/><path d="M12.47,9.43h-.14l-.29,0a.29.29,0,0,0-.25.33.28.28,0,0,0,.29.25h.39a.3.3,0,0,0,0-.59Z"/><path d="M11.5,18.23h-.39a.29.29,0,0,0-.29.3.29.29,0,0,0,.29.29h.39a.3.3,0,0,0,.29-.3A.29.29,0,0,0,11.5,18.23Z"/><path d="M12.81,13.23h-.38a.3.3,0,1,0,0,.59h.38a.3.3,0,1,0,0-.59Z"/><path d="M11.26,10a.29.29,0,0,0-.41,0,2.43,2.43,0,0,0-.3.34.3.3,0,0,0,.07.41.34.34,0,0,0,.17.05.3.3,0,0,0,.24-.12,1.64,1.64,0,0,1,.21-.25A.29.29,0,0,0,11.26,10Z"/><path d="M13.05,18.22h-.39a.3.3,0,1,0,0,.59h.39a.3.3,0,0,0,0-.59Z"/><path d="M10,18.24H9.56a.3.3,0,0,0,0,.59H10a.29.29,0,1,0,0-.58Z"/><path d="M11.48,13a1,1,0,0,1-.26-.2.3.3,0,0,0-.42,0,.3.3,0,0,0,0,.41,2.26,2.26,0,0,0,.35.28.32.32,0,0,0,.16,0,.29.29,0,0,0,.25-.13A.31.31,0,0,0,11.48,13Z"/><path d="M10.76,11.93a1.55,1.55,0,0,1,0-.31h0a.3.3,0,0,0-.29-.3h0a.29.29,0,0,0-.29.29v0a2,2,0,0,0,0,.43.29.29,0,0,0,.29.23h0A.3.3,0,0,0,10.76,11.93Z"/><path d="M14.36,13.23H14a.3.3,0,1,0,0,.59h.38a.3.3,0,1,0,0-.59Z"/><path d="M19.07,13.83a2.25,2.25,0,0,0-.36-.24.29.29,0,0,0-.29.51,1.81,1.81,0,0,1,.29.19.3.3,0,0,0,.41,0A.29.29,0,0,0,19.07,13.83Z"/><path d="M18,18.43a.29.29,0,0,0-.33-.25,1.37,1.37,0,0,1-.29,0h-.05a.3.3,0,1,0,0,.59h.05a2.22,2.22,0,0,0,.37,0A.29.29,0,0,0,18,18.43Z"/><path d="M19.28,17.61a.3.3,0,0,0-.42,0,1.71,1.71,0,0,1-.26.21.3.3,0,0,0-.08.41.31.31,0,0,0,.25.13.33.33,0,0,0,.16-.05l.34-.28A.3.3,0,0,0,19.28,17.61Z"/><path d="M19.85,16.18a.29.29,0,0,0-.34.24l-.09.33a.28.28,0,0,0,.17.37l.1,0a.3.3,0,0,0,.28-.2,1.91,1.91,0,0,0,.11-.41A.3.3,0,0,0,19.85,16.18Z"/><path d="M20,15.24a2.74,2.74,0,0,0-.15-.4.3.3,0,0,0-.39-.15.29.29,0,0,0-.14.39,2.08,2.08,0,0,1,.12.32.3.3,0,0,0,.28.22l.08,0A.28.28,0,0,0,20,15.24Z"/><path d="M15.91,13.23h-.38a.3.3,0,1,0,0,.59h.38a.3.3,0,1,0,0-.59Z"/><path d="M14.59,18.22h-.38a.29.29,0,0,0-.3.29.31.31,0,0,0,.3.29h.39a.29.29,0,1,0,0-.58Z"/><path d="M17.47,13.23h-.4a.3.3,0,0,0,0,.59h.39a.28.28,0,0,0,.29-.28A.29.29,0,0,0,17.47,13.23Z"/><path d="M16.14,18.21h-.38a.29.29,0,0,0-.3.3.3.3,0,0,0,.3.29h.39a.31.31,0,0,0,.29-.3A.29.29,0,0,0,16.14,18.21Z"/></g></g></svg>