<svg xmlns="http://www.w3.org/2000/svg" viewBox="0 0 21 21" fill="#BFC5D2"><g id="Capa_2" data-name="Capa 2"><g id="Capa_1-2" data-name="Capa 1"><path class="cls-1" d="M10.5,21A10.5,10.5,0,1,1,21,10.5,10.51,10.51,0,0,1,10.5,21Zm0-20A9.5,9.5,0,1,0,20,10.5,9.51,9.51,0,0,0,10.5,1Z"/><path class="cls-1" d="M12.88,16c-.52.21-.93.36-1.23.47a3.49,3.49,0,0,1-1.07.16,2.11,2.11,0,0,1-1.46-.46A1.48,1.48,0,0,1,8.61,15a5.21,5.21,0,0,1,0-.55c0-.19.07-.41.13-.65l.64-2.27c.06-.22.11-.43.15-.62a2.62,2.62,0,0,0,.06-.54.8.8,0,0,0-.18-.6,1,1,0,0,0-.69-.17,1.79,1.79,0,0,0-.51.07l-.45.15L8,9.14c.42-.17.82-.32,1.21-.44a3.65,3.65,0,0,1,1.09-.18A2.11,2.11,0,0,1,11.69,9a1.49,1.49,0,0,1,.51,1.17c0,.1,0,.27,0,.52a3.52,3.52,0,0,1-.13.69l-.64,2.27c-.05.18-.1.39-.14.62a3.38,3.38,0,0,0-.06.53.79.79,0,0,0,.2.62,1.13,1.13,0,0,0,.7.16,2.2,2.2,0,0,0,.53-.08,2.51,2.51,0,0,0,.43-.15Z"/><path class="cls-1" d="M12.76,6.81a1.55,1.55,0,0,1-1.08.41,1.56,1.56,0,0,1-1.08-.41,1.37,1.37,0,0,1,0-2,1.53,1.53,0,0,1,1.08-.42,1.49,1.49,0,0,1,1.08.42,1.37,1.37,0,0,1,0,2Z"/></g></g></svg>