<svg xmlns="http://www.w3.org/2000/svg" viewBox="0 0 19.75 19.75" fill="#BFC5D2"><g id="Capa_2" data-name="Capa 2"><g id="Capa_1-2" data-name="Capa 1"><path d="M14.36,16.42h3.22a.51.51,0,0,0,.47-.33l1.67-4.59a.51.51,0,0,0-.06-.45h0a.49.49,0,0,0-.41-.22h-.12l0-.11a6,6,0,0,0-2.63-4.5l-.06,0V6.12a1.12,1.12,0,1,0-1.12,1.13,1,1,0,0,0,.55-.17l.07,0,.06,0A4.92,4.92,0,0,1,18.1,10.7v.13H16.58l0-.1A3.81,3.81,0,0,0,12.79,7.5H7a3.81,3.81,0,0,0-3.77,3.23l0,.1H.5a.49.49,0,0,0-.41.22A.48.48,0,0,0,0,11.5L1.7,16.09a.51.51,0,0,0,.47.33H5.39l.45,2.91a.5.5,0,0,0,.2.33.49.49,0,0,0,.37.08.5.5,0,0,0,.33-.2.52.52,0,0,0,.09-.37l-.75-4.84h7.59l-.75,4.84a.5.5,0,0,0,.42.57.49.49,0,0,0,.57-.41ZM4.21,10.68A2.81,2.81,0,0,1,7,8.5h5.83a2.83,2.83,0,0,1,2.75,2.18l0,.15H4.17ZM5.5,13.33a.51.51,0,0,0-.38.18.45.45,0,0,0-.11.4l.23,1.51H2.52l0-.09-1.28-3.5H18.54l-1.31,3.59H14.51l.23-1.51a.48.48,0,0,0-.11-.4.51.51,0,0,0-.38-.18Z"/><path d="M9.87,0a3.21,3.21,0,1,0,3.21,3.21A3.21,3.21,0,0,0,9.87,0Zm0,5.42a2.21,2.21,0,1,1,2.21-2.21A2.21,2.21,0,0,1,9.87,5.42Z"/></g></g></svg>