<svg xmlns="http://www.w3.org/2000/svg" viewBox="0 0 21.12 20.45" fill="#BFC5D2"><defs><style>.cls-1{fill:#030104;}.cls-2{fill:#1d1d1b;}</style></defs><g id="Capa_2" data-name="Capa 2"><g id="Capa_1-2" data-name="Capa 1"><rect x="9.06" y="9.48" width="1.56" height="1.56"/><rect x="5.93" y="12.61" width="1.56" height="1.56"/><rect x="2.81" y="12.61" width="1.56" height="1.56"/><rect x="2.81" y="9.48" width="1.56" height="1.56"/><rect x="2.81" y="15.73" width="1.56" height="1.56"/><rect x="5.93" y="9.48" width="1.56" height="1.56"/><rect x="5.93" y="15.73" width="1.56" height="1.56"/><path class="cls-1" d="M15.62,20.45a5.5,5.5,0,1,1,5.5-5.5A5.51,5.51,0,0,1,15.62,20.45Zm0-10a4.5,4.5,0,1,0,4.5,4.5A4.51,4.51,0,0,0,15.62,10.45Z"/><path d="M16.85,2.28H14.28V.5a.5.5,0,0,0-.5-.5.5.5,0,0,0-.5.5V2.28H6.43V.5a.5.5,0,0,0-.5-.5.5.5,0,0,0-.5.5V2.28H2.49A2.5,2.5,0,0,0,0,4.77V18a2.5,2.5,0,0,0,2.49,2.49h8a7.75,7.75,0,0,1-.9-1H2.49A1.49,1.49,0,0,1,1,18V7.19H18.34V8a7.58,7.58,0,0,1,1,.47V4.77A2.5,2.5,0,0,0,16.85,2.28Zm1.49,3.91H1V4.77A1.49,1.49,0,0,1,2.49,3.28H5.43V5.19a.51.51,0,0,0,.5.5.5.5,0,0,0,.5-.5V3.28h6.85V5.19a.5.5,0,0,0,.5.5.51.51,0,0,0,.5-.5V3.28h2.57a1.49,1.49,0,0,1,1.49,1.49Z"/><path class="cls-2" d="M15.62,20.45a5.5,5.5,0,1,1,5.5-5.5A5.51,5.51,0,0,1,15.62,20.45Zm0-10a4.5,4.5,0,1,0,4.5,4.5A4.51,4.51,0,0,0,15.62,10.45Z"/><path d="M18.12,15.23h-2v-2.9a.5.5,0,0,0-1,0v3.4a.5.5,0,0,0,.5.5h2.5a.5.5,0,0,0,.5-.5A.5.5,0,0,0,18.12,15.23Z"/></g></g></svg>